# Blender 4.4.3
# www.blender.org
o handrail.015
v 0.004748 0.194419 -0.194419
v 0.000000 0.195319 -0.195319
v 0.008224 0.191961 -0.191961
v 0.004748 0.185326 -0.203111
v 0.000000 0.186185 -0.204051
v 0.008224 0.182982 -0.200545
v 0.004748 0.175939 -0.211309
v 0.000000 0.176755 -0.212286
v 0.008224 0.173712 -0.208640
v 0.004748 0.166276 -0.219012
v 0.000000 0.167046 -0.220024
v 0.008224 0.164171 -0.216246
v 0.004748 0.156353 -0.226218
v 0.000000 0.157078 -0.227264
v 0.008224 0.154374 -0.223361
v 0.004748 0.146189 -0.232928
v 0.000000 0.146866 -0.234005
v 0.008224 0.144339 -0.229986
v 0.004748 0.135801 -0.239142
v 0.000000 0.136430 -0.240248
v 0.008224 0.134083 -0.236120
v 0.004748 0.125206 -0.244858
v 0.000000 0.125786 -0.245991
v 0.008224 0.123623 -0.241764
v 0.004748 0.114423 -0.250078
v 0.000000 0.114952 -0.251235
v 0.008224 0.112977 -0.246916
v 0.004748 0.103468 -0.254800
v 0.000000 0.103946 -0.255979
v 0.008224 0.102162 -0.251578
v 0.009497 0.100378 -0.247178
v 0.008224 0.098593 -0.242778
v 0.009497 0.111003 -0.242598
v 0.008224 0.109028 -0.238280
v 0.009497 0.121461 -0.237536
v 0.008224 0.119299 -0.233309
v 0.009497 0.131736 -0.231992
v 0.008224 0.129390 -0.227864
v 0.009497 0.141812 -0.225966
v 0.009497 0.151670 -0.219458
v 0.008224 0.139284 -0.221946
v 0.008224 0.148966 -0.215554
v 0.004748 0.137434 -0.219003
v 0.000000 0.136757 -0.217926
v 0.004748 0.127672 -0.224842
v 0.004748 0.146987 -0.212697
v 0.004748 0.156314 -0.205923
v 0.000000 0.146262 -0.211651
v 0.000000 0.155544 -0.204910
v -0.004748 0.146987 -0.212697
v -0.004748 0.156314 -0.205923
v -0.008224 0.148966 -0.215554
v -0.004748 0.137434 -0.219003
v -0.008224 0.139284 -0.221946
v -0.004748 0.127672 -0.224842
v 0.000000 0.127043 -0.223736
v -0.008224 0.129390 -0.227864
v -0.004748 0.117716 -0.230214
v -0.004748 0.107583 -0.235119
v 0.000000 0.117137 -0.229081
v -0.008224 0.119299 -0.233309
v -0.008224 0.109028 -0.238280
v -0.009497 0.121461 -0.237536
v -0.009497 0.131736 -0.231992
v -0.008224 0.123623 -0.241764
v -0.009497 0.111003 -0.242598
v -0.009497 0.100378 -0.247178
v -0.008224 0.112977 -0.246916
v -0.008224 0.102162 -0.251578
v -0.004748 0.114423 -0.250078
v -0.004748 0.103468 -0.254800
v -0.004748 0.125206 -0.244858
v -0.004748 0.135801 -0.239142
v -0.004748 0.146189 -0.232928
v -0.008224 0.134083 -0.236120
v -0.008224 0.144339 -0.229986
v -0.009497 0.141812 -0.225966
v -0.008224 0.154374 -0.223361
v -0.004748 0.156353 -0.226218
v -0.008224 0.164171 -0.216246
v -0.009497 0.151670 -0.219458
v -0.009497 0.161295 -0.212467
v -0.009497 0.170670 -0.204995
v -0.008224 0.158419 -0.208689
v -0.008224 0.167628 -0.201349
v -0.008224 0.176575 -0.193535
v -0.004748 0.165401 -0.198680
v -0.004748 0.174231 -0.190969
v 0.000000 0.164586 -0.197703
v 0.000000 0.173372 -0.190030
v 0.004748 0.165401 -0.198680
v 0.004748 0.174231 -0.190969
v 0.008224 0.167628 -0.201349
v 0.009497 0.170670 -0.204995
v 0.008224 0.158419 -0.208689
v 0.008224 0.176575 -0.193535
v 0.008224 0.185246 -0.185246
v 0.009497 0.179779 -0.197040
v 0.009497 0.188603 -0.188603
v 0.004748 0.182788 -0.182788
v 0.000000 0.181888 -0.181888
v -0.004748 0.182788 -0.182788
v -0.008224 0.185246 -0.185246
v -0.009497 0.188603 -0.188603
v -0.008224 0.191961 -0.191961
v -0.009497 0.179779 -0.197040
v -0.008224 0.182982 -0.200545
v -0.004748 0.185326 -0.203111
v -0.008224 0.173712 -0.208640
v -0.004748 0.175939 -0.211309
v -0.004748 0.166276 -0.219012
v -0.004748 0.194419 -0.194419
v 0.009497 0.161295 -0.212467
v -0.008224 0.098593 -0.242778
v -0.004748 0.097287 -0.239557
v 0.000000 0.096809 -0.238377
v 0.000000 0.107054 -0.233962
v 0.004748 0.097287 -0.239557
v 0.004748 0.107583 -0.235119
v 0.004748 0.117716 -0.230214
vn 0.4983 0.5991 -0.6267
vn -0.0000 0.6910 -0.7228
vn 0.8644 0.3475 -0.3635
vn 0.4984 0.5848 -0.6400
vn -0.0000 0.6746 -0.7382
vn 0.8644 0.3392 -0.3711
vn 0.4984 0.5555 -0.6656
vn -0.0000 0.6407 -0.7678
vn 0.8644 0.3221 -0.3860
vn 0.4984 0.5250 -0.6899
vn -0.0000 0.6056 -0.7958
vn 0.8644 0.3045 -0.4001
vn 0.4984 0.4937 -0.7127
vn -0.0000 0.5694 -0.8220
vn 0.8644 0.2863 -0.4133
vn 0.4984 0.4614 -0.7339
vn -0.0000 0.5323 -0.8466
vn 0.8644 0.2676 -0.4256
vn 0.4984 0.4284 -0.7537
vn -0.0000 0.4942 -0.8693
vn 0.8644 0.2484 -0.4370
vn 0.4984 0.3948 -0.7718
vn -0.0000 0.4554 -0.8903
vn 0.8645 0.2289 -0.4476
vn 0.4984 0.3605 -0.7884
vn -0.0000 0.4158 -0.9094
vn 0.8645 0.2090 -0.4572
vn 0.4984 0.3432 -0.7962
vn -0.0000 0.3958 -0.9183
vn 0.8644 0.1990 -0.4617
vn 1.0000 0.0014 -0.0033
vn 0.8675 -0.1969 0.4568
vn 1.0000 0.0015 -0.0033
vn 0.8676 -0.2068 0.4522
vn 1.0000 0.0017 -0.0032
vn 0.8676 -0.2264 0.4427
vn 1.0000 0.0018 -0.0032
vn 0.8676 -0.2457 0.4323
vn 1.0000 0.0019 -0.0031
vn 1.0000 0.0021 -0.0030
vn 0.8676 -0.2647 0.4210
vn 0.8676 -0.2831 0.4087
vn 0.5016 -0.4605 0.7324
vn -0.0000 -0.5323 0.8466
vn 0.5016 -0.4275 0.7521
vn 0.5016 -0.4926 0.7111
vn 0.5016 -0.5239 0.6884
vn -0.0000 -0.5694 0.8220
vn -0.0000 -0.6056 0.7958
vn -0.5016 -0.4926 0.7111
vn -0.5016 -0.5239 0.6884
vn -0.8676 -0.2831 0.4087
vn -0.5016 -0.4605 0.7324
vn -0.8676 -0.2647 0.4210
vn -0.5016 -0.4275 0.7521
vn -0.0000 -0.4942 0.8693
vn -0.8676 -0.2457 0.4323
vn -0.5016 -0.3939 0.7702
vn -0.5016 -0.3598 0.7868
vn -0.0000 -0.4554 0.8903
vn -0.8676 -0.2264 0.4427
vn -0.8676 -0.2068 0.4523
vn -1.0000 0.0016 -0.0032
vn -1.0000 0.0018 -0.0032
vn -0.8645 0.2289 -0.4476
vn -1.0000 0.0015 -0.0033
vn -1.0000 0.0014 -0.0033
vn -0.8645 0.2090 -0.4572
vn -0.8644 0.1990 -0.4617
vn -0.4984 0.3605 -0.7884
vn -0.4984 0.3432 -0.7962
vn -0.4984 0.3948 -0.7718
vn -0.4984 0.4284 -0.7537
vn -0.4984 0.4614 -0.7339
vn -0.8644 0.2484 -0.4370
vn -0.8644 0.2676 -0.4256
vn -1.0000 0.0019 -0.0031
vn -0.8644 0.2863 -0.4133
vn -0.4984 0.4937 -0.7127
vn -0.8644 0.3045 -0.4001
vn -1.0000 0.0021 -0.0030
vn -1.0000 0.0022 -0.0029
vn -1.0000 0.0024 -0.0028
vn -0.8676 -0.3011 0.3957
vn -0.8676 -0.3186 0.3818
vn -0.8676 -0.3354 0.3670
vn -0.5016 -0.5543 0.6642
vn -0.5016 -0.5836 0.6386
vn -0.0000 -0.6407 0.7678
vn -0.0000 -0.6746 0.7382
vn 0.5016 -0.5543 0.6642
vn 0.5016 -0.5836 0.6386
vn 0.8676 -0.3186 0.3818
vn 1.0000 0.0024 -0.0028
vn 0.8676 -0.3011 0.3957
vn 0.8676 -0.3354 0.3670
vn 0.8676 -0.3437 0.3595
vn 1.0000 0.0025 -0.0027
vn 1.0000 0.0026 -0.0027
vn 0.5015 -0.5978 0.6254
vn -0.0000 -0.6910 0.7228
vn -0.5015 -0.5978 0.6254
vn -0.8676 -0.3437 0.3595
vn -1.0000 0.0026 -0.0027
vn -0.8644 0.3475 -0.3635
vn -1.0000 0.0025 -0.0027
vn -0.8644 0.3392 -0.3711
vn -0.4984 0.5848 -0.6400
vn -0.8644 0.3221 -0.3860
vn -0.4984 0.5555 -0.6656
vn -0.4984 0.5250 -0.6899
vn -0.4983 0.5991 -0.6267
vn 1.0000 0.0022 -0.0029
vn -0.8675 -0.1969 0.4568
vn -0.5015 -0.3425 0.7945
vn -0.0000 -0.3958 0.9183
vn -0.0000 -0.4158 0.9094
vn 0.5015 -0.3425 0.7945
vn 0.5016 -0.3598 0.7868
vn 0.5016 -0.3939 0.7702
vt 0.250000 1.000000
vt 0.256944 1.000000
vt 0.256944 0.916667
vt 0.250000 0.916667
vt 0.250000 0.083333
vt 0.256944 0.083333
vt 0.256944 0.000000
vt 0.250000 0.000000
vt 0.263889 1.000000
vt 0.263889 0.916667
vt 0.263889 0.083333
vt 0.263889 0.000000
vt 0.270833 1.000000
vt 0.270833 0.916667
vt 0.270833 0.083333
vt 0.270833 0.000000
vt 0.277778 1.000000
vt 0.277778 0.916667
vt 0.277778 0.083333
vt 0.277778 0.000000
vt 0.284722 1.000000
vt 0.284722 0.916667
vt 0.284722 0.083333
vt 0.284722 0.000000
vt 0.291667 1.000000
vt 0.291667 0.916667
vt 0.291667 0.083333
vt 0.291667 0.000000
vt 0.298611 1.000000
vt 0.298611 0.916667
vt 0.298611 0.083333
vt 0.298611 0.000000
vt 0.305556 1.000000
vt 0.305556 0.916667
vt 0.305556 0.083333
vt 0.305556 0.000000
vt 0.312500 1.000000
vt 0.312500 0.916667
vt 0.312500 0.083333
vt 0.312500 0.000000
vt 0.305556 0.166667
vt 0.312500 0.166667
vt 0.305556 0.250000
vt 0.312500 0.250000
vt 0.298611 0.250000
vt 0.298611 0.166667
vt 0.291667 0.250000
vt 0.291667 0.166667
vt 0.284722 0.166667
vt 0.284722 0.250000
vt 0.277778 0.166667
vt 0.277778 0.250000
vt 0.277778 0.333333
vt 0.284722 0.333333
vt 0.291667 0.333333
vt 0.277778 0.416667
vt 0.284722 0.416667
vt 0.291667 0.416667
vt 0.270833 0.333333
vt 0.270833 0.250000
vt 0.270833 0.416667
vt 0.270833 0.500000
vt 0.277778 0.500000
vt 0.284722 0.500000
vt 0.270833 0.583333
vt 0.277778 0.583333
vt 0.284722 0.583333
vt 0.291667 0.500000
vt 0.291667 0.583333
vt 0.298611 0.500000
vt 0.298611 0.416667
vt 0.298611 0.583333
vt 0.305556 0.500000
vt 0.305556 0.416667
vt 0.305556 0.583333
vt 0.298611 0.666667
vt 0.305556 0.666667
vt 0.291667 0.666667
vt 0.291667 0.750000
vt 0.298611 0.750000
vt 0.305556 0.750000
vt 0.312500 0.666667
vt 0.312500 0.583333
vt 0.312500 0.750000
vt 0.305556 0.833333
vt 0.312500 0.833333
vt 0.298611 0.833333
vt 0.291667 0.833333
vt 0.284722 0.833333
vt 0.284722 0.750000
vt 0.284722 0.666667
vt 0.277778 0.750000
vt 0.277778 0.666667
vt 0.277778 0.833333
vt 0.270833 0.833333
vt 0.270833 0.750000
vt 0.270833 0.666667
vt 0.263889 0.750000
vt 0.263889 0.666667
vt 0.263889 0.583333
vt 0.263889 0.500000
vt 0.256944 0.583333
vt 0.256944 0.500000
vt 0.256944 0.666667
vt 0.263889 0.416667
vt 0.256944 0.416667
vt 0.263889 0.333333
vt 0.256944 0.333333
vt 0.263889 0.250000
vt 0.256944 0.250000
vt 0.263889 0.166667
vt 0.256944 0.166667
vt 0.270833 0.166667
vt 0.250000 0.250000
vt 0.250000 0.166667
vt 0.250000 0.333333
vt 0.250000 0.416667
vt 0.250000 0.500000
vt 0.250000 0.583333
vt 0.250000 0.666667
vt 0.250000 0.750000
vt 0.256944 0.750000
vt 0.250000 0.833333
vt 0.256944 0.833333
vt 0.263889 0.833333
vt 0.312500 0.500000
vt 0.312500 0.416667
vt 0.312500 0.333333
vt 0.305556 0.333333
vt 0.298611 0.333333
s 1
f 1/1/1 4/2/4 5/3/5 2/4/2
f 3/5/3 6/6/6 4/7/4 1/8/1
f 4/2/4 7/9/7 8/10/8 5/3/5
f 6/6/6 9/11/9 7/12/7 4/7/4
f 7/9/7 10/13/10 11/14/11 8/10/8
f 9/11/9 12/15/12 10/16/10 7/12/7
f 10/13/10 13/17/13 14/18/14 11/14/11
f 12/15/12 15/19/15 13/20/13 10/16/10
f 13/17/13 16/21/16 17/22/17 14/18/14
f 15/19/15 18/23/18 16/24/16 13/20/13
f 16/21/16 19/25/19 20/26/20 17/22/17
f 18/23/18 21/27/21 19/28/19 16/24/16
f 19/25/19 22/29/22 23/30/23 20/26/20
f 21/27/21 24/31/24 22/32/22 19/28/19
f 22/29/22 25/33/25 26/34/26 23/30/23
f 24/31/24 27/35/27 25/36/25 22/32/22
f 25/33/25 28/37/28 29/38/29 26/34/26
f 27/35/27 30/39/30 28/40/28 25/36/25
f 33/41/33 31/42/31 30/39/30 27/35/27
f 34/43/34 32/44/32 31/42/31 33/41/33
f 36/45/36 34/43/34 33/41/33 35/46/35
f 35/46/35 33/41/33 27/35/27 24/31/24
f 38/47/38 36/45/36 35/46/35 37/48/37
f 37/48/37 35/46/35 24/31/24 21/27/21
f 39/49/39 37/48/37 21/27/21 18/23/18
f 41/50/41 38/47/38 37/48/37 39/49/39
f 40/51/40 39/49/39 18/23/18 15/19/15
f 42/52/42 41/50/41 39/49/39 40/51/40
f 46/53/46 43/54/43 41/50/41 42/52/42
f 43/54/43 45/55/45 38/47/38 41/50/41
f 48/56/48 44/57/44 43/54/43 46/53/46
f 44/57/44 56/58/56 45/55/45 43/54/43
f 47/59/47 46/53/46 42/52/42 95/60/95
f 49/61/49 48/56/48 46/53/46 47/59/47
f 51/62/51 50/63/50 48/56/48 49/61/49
f 50/63/50 53/64/53 44/57/44 48/56/48
f 84/65/84 52/66/52 50/63/50 51/62/51
f 52/66/52 54/67/54 53/64/53 50/63/50
f 53/64/53 55/68/55 56/58/56 44/57/44
f 54/67/54 57/69/57 55/68/55 53/64/53
f 55/68/55 58/70/58 60/71/60 56/58/56
f 57/69/57 61/72/61 58/70/58 55/68/55
f 58/70/58 59/73/59 117/74/117 60/71/60
f 61/72/61 62/75/62 59/73/59 58/70/58
f 63/76/63 66/77/66 62/75/62 61/72/61
f 64/78/64 63/76/63 61/72/61 57/69/57
f 75/79/75 65/80/65 63/76/63 64/78/64
f 65/80/65 68/81/68 66/77/66 63/76/63
f 66/77/66 67/82/67 114/83/114 62/75/62
f 68/81/68 69/84/69 67/82/67 66/77/66
f 70/85/70 71/86/71 69/84/69 68/81/68
f 72/87/72 70/85/70 68/81/68 65/80/65
f 26/34/26 29/38/29 71/86/71 70/85/70
f 23/30/23 26/34/26 70/85/70 72/87/72
f 20/26/20 23/30/23 72/87/72 73/88/73
f 73/88/73 72/87/72 65/80/65 75/79/75
f 17/22/17 20/26/20 73/88/73 74/89/74
f 74/89/74 73/88/73 75/79/75 76/90/76
f 76/90/76 75/79/75 64/78/64 77/91/77
f 78/92/78 76/90/76 77/91/77 81/93/81
f 79/94/79 74/89/74 76/90/76 78/92/78
f 111/95/111 79/94/79 78/92/78 80/96/80
f 80/96/80 78/92/78 81/93/81 82/97/82
f 81/93/81 77/91/77 54/67/54 52/66/52
f 82/97/82 81/93/81 52/66/52 84/65/84
f 109/98/109 80/96/80 82/97/82 83/99/83
f 83/99/83 82/97/82 84/65/84 85/100/85
f 85/100/85 84/65/84 51/62/51 87/101/87
f 86/102/86 85/100/85 87/101/87 88/103/88
f 106/104/106 83/99/83 85/100/85 86/102/86
f 88/103/88 87/101/87 89/105/89 90/106/90
f 87/101/87 51/62/51 49/61/49 89/105/89
f 90/106/90 89/105/89 91/107/91 92/108/92
f 89/105/89 49/61/49 47/59/47 91/107/91
f 92/108/92 91/107/91 93/109/93 96/110/96
f 91/107/91 47/59/47 95/60/95 93/109/93
f 96/110/96 93/109/93 94/111/94 98/112/98
f 93/109/93 95/60/95 113/113/113 94/111/94
f 97/114/97 96/110/96 98/112/98 99/115/99
f 100/116/100 92/108/92 96/110/96 97/114/97
f 99/115/99 98/112/98 6/6/6 3/5/3
f 98/112/98 94/111/94 9/11/9 6/6/6
f 101/117/101 90/106/90 92/108/92 100/116/100
f 102/118/102 88/103/88 90/106/90 101/117/101
f 103/119/103 86/102/86 88/103/88 102/118/102
f 104/120/104 106/104/106 86/102/86 103/119/103
f 105/121/105 107/122/107 106/104/106 104/120/104
f 107/122/107 109/98/109 83/99/83 106/104/106
f 112/123/112 108/124/108 107/122/107 105/121/105
f 108/124/108 110/125/110 109/98/109 107/122/107
f 110/125/110 111/95/111 80/96/80 109/98/109
f 8/10/8 11/14/11 111/95/111 110/125/110
f 5/3/5 8/10/8 110/125/110 108/124/108
f 11/14/11 14/18/14 79/94/79 111/95/111
f 2/4/2 5/3/5 108/124/108 112/123/112
f 95/60/95 42/52/42 40/51/40 113/113/113
f 94/111/94 113/113/113 12/15/12 9/11/9
f 113/113/113 40/51/40 15/19/15 12/15/12
f 14/18/14 17/22/17 74/89/74 79/94/79
f 77/91/77 64/78/64 57/69/57 54/67/54
f 62/75/62 114/83/114 115/126/115 59/73/59
f 59/73/59 115/126/115 116/127/116 117/74/117
f 117/74/117 116/127/116 118/128/118 119/129/119
f 119/129/119 118/128/118 32/44/32 34/43/34
f 60/71/60 117/74/117 119/129/119 120/130/120
f 120/130/120 119/129/119 34/43/34 36/45/36
f 45/55/45 120/130/120 36/45/36 38/47/38
f 56/58/56 60/71/60 120/130/120 45/55/45
