# Blender 4.4.3
# www.blender.org
o handrail.008
v 0.004748 0.253333 -0.107008
v 0.000000 0.254505 -0.107504
v 0.008224 0.250132 -0.105654
v 0.004748 0.248465 -0.117851
v 0.000000 0.249614 -0.118397
v 0.008224 0.245326 -0.116359
v 0.004748 0.243149 -0.128439
v 0.000000 0.244273 -0.129034
v 0.008224 0.240077 -0.126812
v 0.004748 0.237396 -0.138760
v 0.000000 0.238494 -0.139403
v 0.008224 0.234397 -0.137003
v 0.004748 0.231220 -0.148802
v 0.000000 0.232289 -0.149491
v 0.008224 0.228299 -0.146918
v 0.004748 0.224632 -0.158553
v 0.000000 0.225670 -0.159287
v 0.008224 0.221794 -0.156546
v 0.004748 0.217644 -0.168000
v 0.000000 0.218650 -0.168778
v 0.008224 0.214894 -0.165874
v 0.004748 0.210268 -0.177132
v -0.000000 0.211241 -0.177953
v 0.008224 0.207611 -0.174891
v 0.004748 0.202517 -0.185937
v -0.000000 0.203454 -0.186798
v 0.008224 0.199957 -0.183586
v 0.004748 0.194403 -0.194403
v -0.000000 0.195303 -0.195303
v 0.008224 0.191945 -0.191945
v 0.009497 0.188588 -0.188588
v 0.008224 0.185230 -0.185230
v 0.009497 0.196461 -0.180374
v 0.009497 0.203981 -0.171830
v 0.008224 0.192964 -0.177161
v 0.008224 0.200351 -0.168769
v 0.004748 0.190404 -0.174810
v 0.000000 0.189467 -0.173949
v 0.004748 0.182772 -0.182772
v 0.004748 0.197694 -0.166528
v 0.004748 0.204630 -0.157940
v 0.000000 0.196721 -0.165708
v 0.000000 0.203624 -0.157162
v -0.004748 0.197694 -0.166528
v -0.004748 0.204630 -0.157940
v -0.008224 0.200351 -0.168769
v -0.004748 0.190404 -0.174810
v -0.008224 0.192964 -0.177161
v -0.004748 0.182772 -0.182772
v 0.000000 0.181872 -0.181872
v -0.008224 0.185230 -0.185230
v -0.009497 0.188588 -0.188588
v -0.008224 0.191945 -0.191945
v -0.009497 0.196461 -0.180374
v -0.009497 0.203981 -0.171830
v -0.008224 0.199957 -0.183586
v -0.008224 0.207611 -0.174891
v -0.004748 0.202517 -0.185937
v -0.004748 0.210268 -0.177132
v -0.004748 0.194403 -0.194403
v -0.004748 0.217644 -0.168000
v -0.004748 0.224632 -0.158553
v -0.008224 0.214894 -0.165874
v -0.008224 0.221794 -0.156546
v -0.009497 0.211137 -0.162970
v -0.009497 0.217917 -0.153804
v -0.008224 0.207380 -0.160066
v -0.008224 0.214040 -0.151062
v -0.008224 0.220318 -0.141771
v -0.004748 0.211202 -0.149055
v -0.004748 0.217397 -0.139887
v 0.000000 0.210163 -0.148321
v 0.000000 0.216328 -0.139197
v 0.004748 0.211202 -0.149055
v 0.004748 0.217397 -0.139887
v 0.008224 0.214040 -0.151062
v 0.009497 0.217917 -0.153804
v 0.008224 0.207380 -0.160066
v 0.008224 0.220318 -0.141771
v 0.008224 0.226203 -0.132202
v 0.009497 0.224308 -0.144344
v 0.009497 0.230300 -0.134603
v 0.009497 0.235880 -0.124591
v 0.009497 0.241037 -0.114321
v 0.008224 0.231684 -0.122369
v 0.008224 0.236749 -0.112282
v 0.004748 0.228612 -0.120743
v 0.000000 0.227488 -0.120147
v 0.004748 0.223204 -0.130445
v 0.004748 0.233609 -0.110790
v 0.004748 0.238185 -0.100599
v 0.000000 0.232460 -0.110244
v 0.000000 0.237013 -0.100104
v -0.004748 0.233609 -0.110790
v -0.004748 0.238185 -0.100599
v -0.008224 0.236749 -0.112282
v -0.004748 0.228612 -0.120743
v -0.008224 0.231684 -0.122369
v -0.004748 0.223204 -0.130445
v 0.000000 0.222106 -0.129802
v -0.008224 0.226203 -0.132202
v -0.009497 0.230300 -0.134603
v -0.008224 0.234397 -0.137003
v -0.009497 0.224308 -0.144344
v -0.009497 0.235880 -0.124591
v -0.009497 0.241037 -0.114321
v -0.008224 0.240077 -0.126812
v -0.008224 0.245326 -0.116359
v -0.004748 0.243149 -0.128439
v -0.004748 0.248465 -0.117851
v -0.004748 0.237396 -0.138760
v -0.004748 0.231220 -0.148802
v -0.008224 0.228299 -0.146918
v -0.004748 0.253333 -0.107008
v -0.008224 0.250132 -0.105654
v -0.009497 0.245759 -0.103804
v -0.008224 0.241386 -0.101954
v 0.008224 0.241386 -0.101954
v 0.009497 0.245759 -0.103804
v 0.009497 0.211137 -0.162970
vn 0.4984 0.7909 -0.3551
vn -0.0000 0.9123 -0.4096
vn 0.8644 0.4587 -0.2059
vn 0.4985 0.7830 -0.3721
vn -0.0000 0.9032 -0.4293
vn 0.8645 0.4540 -0.2158
vn 0.4985 0.7662 -0.4056
vn -0.0000 0.8838 -0.4679
vn 0.8645 0.4442 -0.2352
vn 0.4985 0.7480 -0.4382
vn -0.0000 0.8628 -0.5055
vn 0.8645 0.4337 -0.2541
vn 0.4985 0.7285 -0.4699
vn -0.0000 0.8404 -0.5420
vn 0.8645 0.4224 -0.2724
vn 0.4985 0.7078 -0.5005
vn -0.0000 0.8165 -0.5774
vn 0.8645 0.4104 -0.2902
vn 0.4985 0.6858 -0.5302
vn -0.0000 0.7911 -0.6116
vn 0.8645 0.3976 -0.3074
vn 0.4985 0.6627 -0.5589
vn -0.0000 0.7645 -0.6447
vn 0.8645 0.3842 -0.3240
vn 0.4985 0.6384 -0.5865
vn -0.0000 0.7364 -0.6765
vn 0.8645 0.3701 -0.3400
vn 0.4984 0.6259 -0.5999
vn -0.0000 0.7219 -0.6920
vn 0.8645 0.3629 -0.3478
vn 1.0000 0.0025 -0.0024
vn 0.8675 -0.3591 0.3442
vn 1.0000 0.0026 -0.0024
vn 1.0000 0.0027 -0.0023
vn 0.8675 -0.3663 0.3365
vn 0.8675 -0.3802 0.3206
vn 0.5015 -0.6371 0.5853
vn -0.0000 -0.7364 0.6765
vn 0.5014 -0.6246 0.5987
vn 0.5015 -0.6614 0.5577
vn 0.5015 -0.6845 0.5291
vn -0.0000 -0.7645 0.6447
vn -0.0000 -0.7911 0.6116
vn -0.5015 -0.6614 0.5577
vn -0.5015 -0.6845 0.5291
vn -0.8675 -0.3802 0.3206
vn -0.5015 -0.6371 0.5853
vn -0.8675 -0.3663 0.3365
vn -0.5014 -0.6246 0.5987
vn -0.0000 -0.7219 0.6920
vn -0.8675 -0.3591 0.3442
vn -1.0000 0.0025 -0.0024
vn -0.8645 0.3629 -0.3478
vn -1.0000 0.0026 -0.0024
vn -1.0000 0.0027 -0.0023
vn -0.8645 0.3701 -0.3400
vn -0.8645 0.3842 -0.3240
vn -0.4985 0.6384 -0.5865
vn -0.4985 0.6627 -0.5589
vn -0.4984 0.6259 -0.5999
vn -0.4985 0.6858 -0.5302
vn -0.4985 0.7078 -0.5005
vn -0.8645 0.3976 -0.3074
vn -0.8645 0.4104 -0.2902
vn -1.0000 0.0028 -0.0021
vn -1.0000 0.0029 -0.0020
vn -0.8675 -0.3935 0.3042
vn -0.8675 -0.4061 0.2872
vn -0.8675 -0.4180 0.2696
vn -0.5015 -0.7064 0.4995
vn -0.5015 -0.7270 0.4689
vn -0.0000 -0.8165 0.5774
vn -0.0000 -0.8404 0.5420
vn 0.5015 -0.7064 0.4995
vn 0.5015 -0.7270 0.4689
vn 0.8675 -0.4061 0.2872
vn 1.0000 0.0029 -0.0020
vn 0.8675 -0.3935 0.3042
vn 0.8676 -0.4180 0.2696
vn 0.8676 -0.4291 0.2514
vn 1.0000 0.0030 -0.0019
vn 1.0000 0.0030 -0.0018
vn 1.0000 0.0031 -0.0017
vn 1.0000 0.0032 -0.0015
vn 0.8676 -0.4395 0.2327
vn 0.8676 -0.4492 0.2135
vn 0.5015 -0.7646 0.4048
vn -0.0000 -0.8838 0.4679
vn 0.5015 -0.7465 0.4373
vn 0.5016 -0.7814 0.3714
vn 0.5015 -0.7893 0.3544
vn -0.0000 -0.9032 0.4293
vn -0.0000 -0.9123 0.4096
vn -0.5015 -0.7814 0.3714
vn -0.5015 -0.7893 0.3544
vn -0.8676 -0.4492 0.2135
vn -0.5015 -0.7646 0.4048
vn -0.8676 -0.4395 0.2327
vn -0.5015 -0.7465 0.4373
vn -0.0000 -0.8628 0.5055
vn -0.8676 -0.4291 0.2514
vn -1.0000 0.0030 -0.0018
vn -0.8645 0.4337 -0.2541
vn -1.0000 0.0030 -0.0019
vn -1.0000 0.0031 -0.0017
vn -1.0000 0.0032 -0.0015
vn -0.8645 0.4442 -0.2352
vn -0.8645 0.4540 -0.2158
vn -0.4985 0.7662 -0.4056
vn -0.4985 0.7830 -0.3721
vn -0.4985 0.7480 -0.4382
vn -0.4985 0.7285 -0.4699
vn -0.8645 0.4224 -0.2724
vn -0.4984 0.7909 -0.3551
vn -0.8644 0.4587 -0.2059
vn -1.0000 0.0033 -0.0015
vn -0.8675 -0.4538 0.2037
vn 0.8675 -0.4538 0.2037
vn 1.0000 0.0033 -0.0015
vn 1.0000 0.0028 -0.0021
vt 0.312500 1.000000
vt 0.319444 1.000000
vt 0.319444 0.916667
vt 0.312500 0.916667
vt 0.312500 0.083333
vt 0.319444 0.083333
vt 0.319444 0.000000
vt 0.312500 0.000000
vt 0.326389 1.000000
vt 0.326389 0.916667
vt 0.326389 0.083333
vt 0.326389 0.000000
vt 0.333333 1.000000
vt 0.333333 0.916667
vt 0.333333 0.083333
vt 0.333333 0.000000
vt 0.340278 1.000000
vt 0.340278 0.916667
vt 0.340278 0.083333
vt 0.340278 0.000000
vt 0.347222 1.000000
vt 0.347222 0.916667
vt 0.347222 0.083333
vt 0.347222 0.000000
vt 0.354167 1.000000
vt 0.354167 0.916667
vt 0.354167 0.083333
vt 0.354167 0.000000
vt 0.361111 1.000000
vt 0.361111 0.916667
vt 0.361111 0.083333
vt 0.361111 0.000000
vt 0.368056 1.000000
vt 0.368056 0.916667
vt 0.368056 0.083333
vt 0.368056 0.000000
vt 0.375000 1.000000
vt 0.375000 0.916667
vt 0.375000 0.083333
vt 0.375000 0.000000
vt 0.368056 0.166667
vt 0.375000 0.166667
vt 0.368056 0.250000
vt 0.375000 0.250000
vt 0.361111 0.166667
vt 0.361111 0.250000
vt 0.361111 0.333333
vt 0.368056 0.333333
vt 0.375000 0.333333
vt 0.361111 0.416667
vt 0.368056 0.416667
vt 0.375000 0.416667
vt 0.354167 0.333333
vt 0.354167 0.250000
vt 0.354167 0.416667
vt 0.354167 0.500000
vt 0.361111 0.500000
vt 0.368056 0.500000
vt 0.354167 0.583333
vt 0.361111 0.583333
vt 0.368056 0.583333
vt 0.375000 0.500000
vt 0.375000 0.583333
vt 0.368056 0.666667
vt 0.375000 0.666667
vt 0.368056 0.750000
vt 0.375000 0.750000
vt 0.361111 0.666667
vt 0.361111 0.750000
vt 0.361111 0.833333
vt 0.368056 0.833333
vt 0.375000 0.833333
vt 0.354167 0.833333
vt 0.354167 0.750000
vt 0.347222 0.833333
vt 0.347222 0.750000
vt 0.354167 0.666667
vt 0.347222 0.666667
vt 0.347222 0.583333
vt 0.347222 0.500000
vt 0.340278 0.583333
vt 0.340278 0.500000
vt 0.340278 0.666667
vt 0.347222 0.416667
vt 0.340278 0.416667
vt 0.347222 0.333333
vt 0.340278 0.333333
vt 0.347222 0.250000
vt 0.340278 0.250000
vt 0.347222 0.166667
vt 0.340278 0.166667
vt 0.354167 0.166667
vt 0.333333 0.250000
vt 0.333333 0.166667
vt 0.333333 0.333333
vt 0.326389 0.166667
vt 0.326389 0.250000
vt 0.319444 0.166667
vt 0.319444 0.250000
vt 0.319444 0.333333
vt 0.326389 0.333333
vt 0.319444 0.416667
vt 0.326389 0.416667
vt 0.333333 0.416667
vt 0.312500 0.333333
vt 0.312500 0.250000
vt 0.312500 0.416667
vt 0.312500 0.500000
vt 0.319444 0.500000
vt 0.326389 0.500000
vt 0.312500 0.583333
vt 0.319444 0.583333
vt 0.326389 0.583333
vt 0.333333 0.500000
vt 0.333333 0.583333
vt 0.326389 0.666667
vt 0.333333 0.666667
vt 0.326389 0.750000
vt 0.333333 0.750000
vt 0.340278 0.750000
vt 0.319444 0.666667
vt 0.319444 0.750000
vt 0.319444 0.833333
vt 0.326389 0.833333
vt 0.333333 0.833333
vt 0.340278 0.833333
vt 0.312500 0.833333
vt 0.312500 0.750000
vt 0.312500 0.666667
vt 0.312500 0.166667
s 1
f 1/1/1 4/2/4 5/3/5 2/4/2
f 3/5/3 6/6/6 4/7/4 1/8/1
f 4/2/4 7/9/7 8/10/8 5/3/5
f 6/6/6 9/11/9 7/12/7 4/7/4
f 7/9/7 10/13/10 11/14/11 8/10/8
f 9/11/9 12/15/12 10/16/10 7/12/7
f 10/13/10 13/17/13 14/18/14 11/14/11
f 12/15/12 15/19/15 13/20/13 10/16/10
f 13/17/13 16/21/16 17/22/17 14/18/14
f 15/19/15 18/23/18 16/24/16 13/20/13
f 16/21/16 19/25/19 20/26/20 17/22/17
f 18/23/18 21/27/21 19/28/19 16/24/16
f 19/25/19 22/29/22 23/30/23 20/26/20
f 21/27/21 24/31/24 22/32/22 19/28/19
f 22/29/22 25/33/25 26/34/26 23/30/23
f 24/31/24 27/35/27 25/36/25 22/32/22
f 25/33/25 28/37/28 29/38/29 26/34/26
f 27/35/27 30/39/30 28/40/28 25/36/25
f 33/41/33 31/42/31 30/39/30 27/35/27
f 35/43/35 32/44/32 31/42/31 33/41/33
f 34/45/34 33/41/33 27/35/27 24/31/24
f 36/46/36 35/43/35 33/41/33 34/45/34
f 40/47/40 37/48/37 35/43/35 36/46/36
f 37/48/37 39/49/39 32/44/32 35/43/35
f 42/50/42 38/51/38 37/48/37 40/47/40
f 38/51/38 50/52/50 39/49/39 37/48/37
f 41/53/41 40/47/40 36/46/36 78/54/78
f 43/55/43 42/50/42 40/47/40 41/53/41
f 45/56/45 44/57/44 42/50/42 43/55/43
f 44/57/44 47/58/47 38/51/38 42/50/42
f 67/59/67 46/60/46 44/57/44 45/56/45
f 46/60/46 48/61/48 47/58/47 44/57/44
f 47/58/47 49/62/49 50/52/50 38/51/38
f 48/61/48 51/63/51 49/62/49 47/58/47
f 54/64/54 52/65/52 51/63/51 48/61/48
f 56/66/56 53/67/53 52/65/52 54/64/54
f 55/68/55 54/64/54 48/61/48 46/60/46
f 57/69/57 56/66/56 54/64/54 55/68/55
f 59/70/59 58/71/58 56/66/56 57/69/57
f 58/71/58 60/72/60 53/67/53 56/66/56
f 23/30/23 26/34/26 58/71/58 59/70/59
f 26/34/26 29/38/29 60/72/60 58/71/58
f 61/73/61 59/70/59 57/69/57 63/74/63
f 20/26/20 23/30/23 59/70/59 61/73/61
f 62/75/62 61/73/61 63/74/63 64/76/64
f 17/22/17 20/26/20 61/73/61 62/75/62
f 64/76/64 63/74/63 65/77/65 66/78/66
f 63/74/63 57/69/57 55/68/55 65/77/65
f 66/78/66 65/77/65 67/59/67 68/79/68
f 65/77/65 55/68/55 46/60/46 67/59/67
f 68/79/68 67/59/67 45/56/45 70/80/70
f 69/81/69 68/79/68 70/80/70 71/82/71
f 104/83/104 66/78/66 68/79/68 69/81/69
f 71/82/71 70/80/70 72/84/72 73/85/73
f 70/80/70 45/56/45 43/55/43 72/84/72
f 73/85/73 72/84/72 74/86/74 75/87/75
f 72/84/72 43/55/43 41/53/41 74/86/74
f 75/87/75 74/86/74 76/88/76 79/89/79
f 74/86/74 41/53/41 78/54/78 76/88/76
f 79/89/79 76/88/76 77/90/77 81/91/81
f 76/88/76 78/54/78 120/92/120 77/90/77
f 80/93/80 79/89/79 81/91/81 82/94/82
f 89/95/89 75/87/75 79/89/79 80/93/80
f 82/94/82 81/91/81 15/19/15 12/15/12
f 81/91/81 77/90/77 18/23/18 15/19/15
f 83/96/83 82/94/82 12/15/12 9/11/9
f 85/97/85 80/93/80 82/94/82 83/96/83
f 84/98/84 83/96/83 9/11/9 6/6/6
f 86/99/86 85/97/85 83/96/83 84/98/84
f 90/100/90 87/101/87 85/97/85 86/99/86
f 87/101/87 89/95/89 80/93/80 85/97/85
f 92/102/92 88/103/88 87/101/87 90/100/90
f 88/103/88 100/104/100 89/95/89 87/101/87
f 91/105/91 90/100/90 86/99/86 118/106/118
f 93/107/93 92/102/92 90/100/90 91/105/91
f 95/108/95 94/109/94 92/102/92 93/107/93
f 94/109/94 97/110/97 88/103/88 92/102/92
f 117/111/117 96/112/96 94/109/94 95/108/95
f 96/112/96 98/113/98 97/110/97 94/109/94
f 97/110/97 99/114/99 100/104/100 88/103/88
f 98/113/98 101/115/101 99/114/99 97/110/97
f 99/114/99 71/82/71 73/85/73 100/104/100
f 101/115/101 69/81/69 71/82/71 99/114/99
f 105/116/105 102/117/102 101/115/101 98/113/98
f 102/117/102 104/83/104 69/81/69 101/115/101
f 107/118/107 103/119/103 102/117/102 105/116/105
f 103/119/103 113/120/113 104/83/104 102/117/102
f 106/121/106 105/116/105 98/113/98 96/112/96
f 108/122/108 107/118/107 105/116/105 106/121/106
f 110/123/110 109/124/109 107/118/107 108/122/108
f 109/124/109 111/125/111 103/119/103 107/118/107
f 5/3/5 8/10/8 109/124/109 110/123/110
f 8/10/8 11/14/11 111/125/111 109/124/109
f 111/125/111 112/126/112 113/120/113 103/119/103
f 11/14/11 14/18/14 112/126/112 111/125/111
f 112/126/112 62/75/62 64/76/64 113/120/113
f 14/18/14 17/22/17 62/75/62 112/126/112
f 113/120/113 64/76/64 66/78/66 104/83/104
f 114/127/114 110/123/110 108/122/108 115/128/115
f 2/4/2 5/3/5 110/123/110 114/127/114
f 115/128/115 108/122/108 106/121/106 116/129/116
f 116/129/116 106/121/106 96/112/96 117/111/117
f 100/104/100 73/85/73 75/87/75 89/95/89
f 118/106/118 86/99/86 84/98/84 119/130/119
f 119/130/119 84/98/84 6/6/6 3/5/3
f 78/54/78 36/46/36 34/45/34 120/92/120
f 77/90/77 120/92/120 21/27/21 18/23/18
f 120/92/120 34/45/34 24/31/24 21/27/21
