# Blender 4.4.3
# www.blender.org
o handrail.007
v 0.004748 0.103468 -0.254800
v 0.000000 0.103946 -0.255979
v 0.008224 0.102162 -0.251578
v 0.004748 0.092358 -0.259025
v 0.000000 0.092785 -0.260223
v 0.008224 0.091194 -0.255750
v 0.004748 0.081112 -0.262752
v 0.000000 0.081486 -0.263968
v 0.008224 0.080090 -0.259430
v 0.004748 0.069746 -0.265983
v 0.000000 0.070068 -0.267214
v 0.008224 0.068868 -0.262619
v 0.004748 0.058278 -0.268716
v 0.000000 0.058547 -0.269960
v 0.008224 0.057545 -0.265318
v 0.004748 0.046725 -0.270952
v 0.000000 0.046940 -0.272206
v 0.008224 0.046137 -0.267526
v 0.004748 0.035103 -0.272691
v 0.000000 0.035265 -0.273953
v 0.008224 0.034662 -0.269243
v 0.004748 0.023431 -0.273934
v -0.000000 0.023538 -0.275201
v 0.008224 0.023136 -0.270470
v 0.004748 0.011724 -0.274679
v -0.000000 0.011778 -0.275950
v 0.008224 0.011576 -0.271206
v 0.004748 -0.000000 -0.274927
v -0.000000 -0.000000 -0.276200
v 0.008224 -0.000000 -0.271451
v 0.009497 -0.000000 -0.266703
v 0.008224 -0.000000 -0.261955
v 0.009497 0.011375 -0.266462
v 0.009497 0.022734 -0.265739
v 0.008224 0.011174 -0.261718
v 0.008224 0.022332 -0.261008
v 0.004748 0.011027 -0.258245
v 0.000000 0.010973 -0.256974
v 0.004748 -0.000000 -0.258479
v 0.004748 0.022037 -0.257544
v 0.004748 0.033015 -0.256376
v 0.000000 0.021930 -0.256276
v 0.000000 0.032854 -0.255114
v -0.004748 0.022037 -0.257544
v -0.004748 0.033015 -0.256376
v -0.008224 0.022332 -0.261008
v -0.004748 0.011027 -0.258245
v -0.008224 0.011174 -0.261718
v -0.004748 -0.000000 -0.258479
v 0.000000 -0.000000 -0.257206
v -0.008224 0.000000 -0.261955
v -0.009497 -0.000000 -0.266703
v -0.008224 -0.000000 -0.271451
v -0.009497 0.011375 -0.266462
v -0.009497 0.022734 -0.265739
v -0.008224 0.011576 -0.271206
v -0.008224 0.023136 -0.270470
v -0.004748 0.011724 -0.274679
v -0.004748 0.023431 -0.273934
v -0.004748 -0.000000 -0.274927
v -0.004748 0.035103 -0.272691
v -0.004748 0.046725 -0.270952
v -0.008224 0.034662 -0.269243
v -0.008224 0.046137 -0.267526
v -0.009497 0.034059 -0.264534
v -0.009497 0.045335 -0.262846
v -0.008224 0.033457 -0.259824
v -0.008224 0.044532 -0.258166
v -0.008224 0.055541 -0.256035
v -0.004748 0.043944 -0.254740
v -0.004748 0.054808 -0.252638
v 0.000000 0.043729 -0.253486
v 0.000000 0.054540 -0.251394
v 0.004748 0.043944 -0.254740
v 0.004748 0.054808 -0.252638
v 0.008224 0.044532 -0.258166
v 0.009497 0.045335 -0.262846
v 0.008224 0.033457 -0.259824
v 0.008224 0.055541 -0.256035
v 0.008224 0.066469 -0.253431
v 0.009497 0.056543 -0.260677
v 0.009497 0.067668 -0.258025
v 0.009497 0.078694 -0.254892
v 0.009497 0.089602 -0.251276
v 0.008224 0.077297 -0.250353
v 0.008224 0.088011 -0.246802
v 0.004748 0.076275 -0.247031
v 0.000000 0.075901 -0.245815
v 0.004748 0.065590 -0.250068
v 0.004748 0.086846 -0.243527
v 0.004748 0.097287 -0.239557
v 0.000000 0.086420 -0.242329
v 0.000000 0.096809 -0.238377
v -0.004748 0.086846 -0.243527
v -0.004748 0.097287 -0.239557
v -0.008224 0.088011 -0.246802
v -0.004748 0.076275 -0.247031
v -0.008224 0.077297 -0.250353
v -0.004748 0.065590 -0.250068
v 0.000000 0.065269 -0.248837
v -0.008224 0.066469 -0.253431
v -0.009497 0.067668 -0.258025
v -0.008224 0.068868 -0.262619
v -0.009497 0.056543 -0.260677
v -0.009497 0.078694 -0.254892
v -0.009497 0.089602 -0.251276
v -0.008224 0.080090 -0.259430
v -0.008224 0.091194 -0.255750
v -0.004748 0.081112 -0.262752
v -0.004748 0.092358 -0.259025
v -0.004748 0.069746 -0.265983
v -0.004748 0.058278 -0.268716
v -0.008224 0.057545 -0.265318
v -0.004748 0.103468 -0.254800
v -0.008224 0.102162 -0.251578
v -0.009497 0.100378 -0.247178
v -0.008224 0.098593 -0.242778
v 0.008224 0.098593 -0.242778
v 0.009497 0.100378 -0.247178
v 0.009497 0.034059 -0.264534
vn 0.4984 0.3082 -0.8103
vn -0.0000 0.3555 -0.9347
vn 0.8644 0.1787 -0.4699
vn 0.4985 0.2905 -0.8168
vn -0.0000 0.3351 -0.9422
vn 0.8645 0.1685 -0.4736
vn 0.4985 0.2549 -0.8286
vn -0.0000 0.2941 -0.9558
vn 0.8645 0.1478 -0.4804
vn 0.4985 0.2190 -0.8388
vn -0.0000 0.2527 -0.9676
vn 0.8645 0.1270 -0.4863
vn 0.4985 0.1829 -0.8474
vn -0.0000 0.2110 -0.9775
vn 0.8645 0.1060 -0.4913
vn 0.4985 0.1466 -0.8544
vn -0.0000 0.1691 -0.9856
vn 0.8645 0.0850 -0.4954
vn 0.4985 0.1100 -0.8599
vn -0.0000 0.1269 -0.9919
vn 0.8645 0.0638 -0.4986
vn 0.4985 0.0734 -0.8638
vn -0.0000 0.0847 -0.9964
vn 0.8645 0.0426 -0.5008
vn 0.4985 0.0367 -0.8661
vn -0.0000 0.0424 -0.9991
vn 0.8645 0.0213 -0.5022
vn 0.4984 0.0184 -0.8667
vn -0.0000 0.0212 -0.9998
vn 0.8645 0.0107 -0.5026
vn 1.0000 0.0001 -0.0035
vn 0.8675 -0.0105 0.4973
vn 1.0000 0.0003 -0.0035
vn 0.8675 -0.0211 0.4969
vn 0.8675 -0.0421 0.4956
vn 0.5015 -0.0367 0.8644
vn -0.0000 -0.0424 0.9991
vn 0.5014 -0.0183 0.8650
vn 0.5015 -0.0733 0.8620
vn 0.5015 -0.1098 0.8581
vn -0.0000 -0.0847 0.9964
vn -0.0000 -0.1269 0.9919
vn -0.5015 -0.0733 0.8620
vn -0.5015 -0.1098 0.8581
vn -0.8675 -0.0421 0.4956
vn -0.5015 -0.0367 0.8644
vn -0.8675 -0.0211 0.4969
vn -0.5014 -0.0183 0.8650
vn -0.0000 -0.0212 0.9998
vn -0.8675 -0.0105 0.4973
vn -1.0000 0.0001 -0.0035
vn -0.8645 0.0106 -0.5026
vn -1.0000 0.0003 -0.0035
vn -0.8645 0.0213 -0.5022
vn -0.8645 0.0426 -0.5008
vn -0.4985 0.0367 -0.8661
vn -0.4985 0.0734 -0.8638
vn -0.4984 0.0184 -0.8667
vn -0.4985 0.1100 -0.8599
vn -0.4985 0.1465 -0.8544
vn -0.8645 0.0638 -0.4986
vn -0.8645 0.0850 -0.4954
vn -1.0000 0.0004 -0.0035
vn -1.0000 0.0006 -0.0035
vn -0.8675 -0.0631 0.4933
vn -0.8675 -0.0841 0.4902
vn -0.8675 -0.1049 0.4862
vn -0.5015 -0.1463 0.8527
vn -0.5015 -0.1825 0.8457
vn -0.0000 -0.1690 0.9856
vn -0.0000 -0.2110 0.9775
vn 0.5015 -0.1463 0.8527
vn 0.5015 -0.1825 0.8457
vn 0.8675 -0.0841 0.4902
vn 1.0000 0.0006 -0.0035
vn 0.8675 -0.0631 0.4933
vn 0.8676 -0.1049 0.4862
vn 0.8676 -0.1257 0.4812
vn 1.0000 0.0007 -0.0034
vn 1.0000 0.0009 -0.0034
vn 1.0000 0.0010 -0.0034
vn 1.0000 0.0012 -0.0034
vn 0.8676 -0.1463 0.4753
vn 0.8676 -0.1667 0.4686
vn 0.5015 -0.2544 0.8269
vn -0.0000 -0.2941 0.9558
vn 0.5015 -0.2186 0.8371
vn 0.5016 -0.2899 0.8151
vn 0.5015 -0.3075 0.8087
vn -0.0000 -0.3351 0.9422
vn -0.0000 -0.3555 0.9347
vn -0.5016 -0.2899 0.8151
vn -0.5015 -0.3075 0.8087
vn -0.8676 -0.1667 0.4686
vn -0.5015 -0.2544 0.8269
vn -0.8676 -0.1463 0.4753
vn -0.5015 -0.2186 0.8371
vn -0.0000 -0.2527 0.9676
vn -0.8676 -0.1257 0.4812
vn -1.0000 0.0009 -0.0034
vn -0.8645 0.1270 -0.4863
vn -1.0000 0.0007 -0.0034
vn -1.0000 0.0010 -0.0034
vn -1.0000 0.0012 -0.0034
vn -0.8645 0.1478 -0.4804
vn -0.8645 0.1685 -0.4736
vn -0.4985 0.2549 -0.8286
vn -0.4985 0.2905 -0.8168
vn -0.4985 0.2190 -0.8388
vn -0.4985 0.1829 -0.8474
vn -0.8645 0.1060 -0.4913
vn -0.4984 0.3082 -0.8103
vn -0.8644 0.1787 -0.4699
vn -1.0000 0.0013 -0.0034
vn -0.8675 -0.1768 0.4649
vn 0.8675 -0.1768 0.4649
vn 1.0000 0.0013 -0.0034
vn 1.0000 0.0004 -0.0035
vt 0.312500 1.000000
vt 0.319444 1.000000
vt 0.319444 0.916667
vt 0.312500 0.916667
vt 0.312500 0.083333
vt 0.319444 0.083333
vt 0.319444 0.000000
vt 0.312500 0.000000
vt 0.326389 1.000000
vt 0.326389 0.916667
vt 0.326389 0.083333
vt 0.326389 0.000000
vt 0.333333 1.000000
vt 0.333333 0.916667
vt 0.333333 0.083333
vt 0.333333 0.000000
vt 0.340278 1.000000
vt 0.340278 0.916667
vt 0.340278 0.083333
vt 0.340278 0.000000
vt 0.347222 1.000000
vt 0.347222 0.916667
vt 0.347222 0.083333
vt 0.347222 0.000000
vt 0.354167 1.000000
vt 0.354167 0.916667
vt 0.354167 0.083333
vt 0.354167 0.000000
vt 0.361111 1.000000
vt 0.361111 0.916667
vt 0.361111 0.083333
vt 0.361111 0.000000
vt 0.368056 1.000000
vt 0.368056 0.916667
vt 0.368056 0.083333
vt 0.368056 0.000000
vt 0.375000 1.000000
vt 0.375000 0.916667
vt 0.375000 0.083333
vt 0.375000 0.000000
vt 0.368056 0.166667
vt 0.375000 0.166667
vt 0.368056 0.250000
vt 0.375000 0.250000
vt 0.361111 0.166667
vt 0.361111 0.250000
vt 0.361111 0.333333
vt 0.368056 0.333333
vt 0.375000 0.333333
vt 0.361111 0.416667
vt 0.368056 0.416667
vt 0.375000 0.416667
vt 0.354167 0.333333
vt 0.354167 0.250000
vt 0.354167 0.416667
vt 0.354167 0.500000
vt 0.361111 0.500000
vt 0.368056 0.500000
vt 0.354167 0.583333
vt 0.361111 0.583333
vt 0.368056 0.583333
vt 0.375000 0.500000
vt 0.375000 0.583333
vt 0.368056 0.666667
vt 0.375000 0.666667
vt 0.368056 0.750000
vt 0.375000 0.750000
vt 0.361111 0.666667
vt 0.361111 0.750000
vt 0.361111 0.833333
vt 0.368056 0.833333
vt 0.375000 0.833333
vt 0.354167 0.833333
vt 0.354167 0.750000
vt 0.347222 0.833333
vt 0.347222 0.750000
vt 0.354167 0.666667
vt 0.347222 0.666667
vt 0.347222 0.583333
vt 0.347222 0.500000
vt 0.340278 0.583333
vt 0.340278 0.500000
vt 0.340278 0.666667
vt 0.347222 0.416667
vt 0.340278 0.416667
vt 0.347222 0.333333
vt 0.340278 0.333333
vt 0.347222 0.250000
vt 0.340278 0.250000
vt 0.347222 0.166667
vt 0.340278 0.166667
vt 0.354167 0.166667
vt 0.333333 0.250000
vt 0.333333 0.166667
vt 0.333333 0.333333
vt 0.326389 0.166667
vt 0.326389 0.250000
vt 0.319444 0.166667
vt 0.319444 0.250000
vt 0.319444 0.333333
vt 0.326389 0.333333
vt 0.319444 0.416667
vt 0.326389 0.416667
vt 0.333333 0.416667
vt 0.312500 0.333333
vt 0.312500 0.250000
vt 0.312500 0.416667
vt 0.312500 0.500000
vt 0.319444 0.500000
vt 0.326389 0.500000
vt 0.312500 0.583333
vt 0.319444 0.583333
vt 0.326389 0.583333
vt 0.333333 0.500000
vt 0.333333 0.583333
vt 0.326389 0.666667
vt 0.333333 0.666667
vt 0.326389 0.750000
vt 0.333333 0.750000
vt 0.340278 0.750000
vt 0.319444 0.666667
vt 0.319444 0.750000
vt 0.319444 0.833333
vt 0.326389 0.833333
vt 0.333333 0.833333
vt 0.340278 0.833333
vt 0.312500 0.833333
vt 0.312500 0.750000
vt 0.312500 0.666667
vt 0.312500 0.166667
s 1
f 1/1/1 4/2/4 5/3/5 2/4/2
f 3/5/3 6/6/6 4/7/4 1/8/1
f 4/2/4 7/9/7 8/10/8 5/3/5
f 6/6/6 9/11/9 7/12/7 4/7/4
f 7/9/7 10/13/10 11/14/11 8/10/8
f 9/11/9 12/15/12 10/16/10 7/12/7
f 10/13/10 13/17/13 14/18/14 11/14/11
f 12/15/12 15/19/15 13/20/13 10/16/10
f 13/17/13 16/21/16 17/22/17 14/18/14
f 15/19/15 18/23/18 16/24/16 13/20/13
f 16/21/16 19/25/19 20/26/20 17/22/17
f 18/23/18 21/27/21 19/28/19 16/24/16
f 19/25/19 22/29/22 23/30/23 20/26/20
f 21/27/21 24/31/24 22/32/22 19/28/19
f 22/29/22 25/33/25 26/34/26 23/30/23
f 24/31/24 27/35/27 25/36/25 22/32/22
f 25/33/25 28/37/28 29/38/29 26/34/26
f 27/35/27 30/39/30 28/40/28 25/36/25
f 33/41/31 31/42/31 30/39/30 27/35/27
f 35/43/34 32/44/32 31/42/31 33/41/31
f 34/45/33 33/41/31 27/35/27 24/31/24
f 36/46/35 35/43/34 33/41/31 34/45/33
f 40/47/39 37/48/36 35/43/34 36/46/35
f 37/48/36 39/49/38 32/44/32 35/43/34
f 42/50/41 38/51/37 37/48/36 40/47/39
f 38/51/37 50/52/49 39/49/38 37/48/36
f 41/53/40 40/47/39 36/46/35 78/54/76
f 43/55/42 42/50/41 40/47/39 41/53/40
f 45/56/44 44/57/43 42/50/41 43/55/42
f 44/57/43 47/58/46 38/51/37 42/50/41
f 67/59/65 46/60/45 44/57/43 45/56/44
f 46/60/45 48/61/47 47/58/46 44/57/43
f 47/58/46 49/62/48 50/52/49 38/51/37
f 48/61/47 51/63/50 49/62/48 47/58/46
f 54/64/51 52/65/51 51/63/50 48/61/47
f 56/66/54 53/67/52 52/65/51 54/64/51
f 55/68/53 54/64/51 48/61/47 46/60/45
f 57/69/55 56/66/54 54/64/51 55/68/53
f 59/70/57 58/71/56 56/66/54 57/69/55
f 58/71/56 60/72/58 53/67/52 56/66/54
f 23/30/23 26/34/26 58/71/56 59/70/57
f 26/34/26 29/38/29 60/72/58 58/71/56
f 61/73/59 59/70/57 57/69/55 63/74/61
f 20/26/20 23/30/23 59/70/57 61/73/59
f 62/75/60 61/73/59 63/74/61 64/76/62
f 17/22/17 20/26/20 61/73/59 62/75/60
f 64/76/62 63/74/61 65/77/63 66/78/64
f 63/74/61 57/69/55 55/68/53 65/77/63
f 66/78/64 65/77/63 67/59/65 68/79/66
f 65/77/63 55/68/53 46/60/45 67/59/65
f 68/79/66 67/59/65 45/56/44 70/80/68
f 69/81/67 68/79/66 70/80/68 71/82/69
f 104/83/102 66/78/64 68/79/66 69/81/67
f 71/82/69 70/80/68 72/84/70 73/85/71
f 70/80/68 45/56/44 43/55/42 72/84/70
f 73/85/71 72/84/70 74/86/72 75/87/73
f 72/84/70 43/55/42 41/53/40 74/86/72
f 75/87/73 74/86/72 76/88/74 79/89/77
f 74/86/72 41/53/40 78/54/76 76/88/74
f 79/89/77 76/88/74 77/90/75 81/91/79
f 76/88/74 78/54/76 120/92/118 77/90/75
f 80/93/78 79/89/77 81/91/79 82/94/80
f 89/95/87 75/87/73 79/89/77 80/93/78
f 82/94/80 81/91/79 15/19/15 12/15/12
f 81/91/79 77/90/75 18/23/18 15/19/15
f 83/96/81 82/94/80 12/15/12 9/11/9
f 85/97/83 80/93/78 82/94/80 83/96/81
f 84/98/82 83/96/81 9/11/9 6/6/6
f 86/99/84 85/97/83 83/96/81 84/98/82
f 90/100/88 87/101/85 85/97/83 86/99/84
f 87/101/85 89/95/87 80/93/78 85/97/83
f 92/102/90 88/103/86 87/101/85 90/100/88
f 88/103/86 100/104/98 89/95/87 87/101/85
f 91/105/89 90/100/88 86/99/84 118/106/116
f 93/107/91 92/102/90 90/100/88 91/105/89
f 95/108/93 94/109/92 92/102/90 93/107/91
f 94/109/92 97/110/95 88/103/86 92/102/90
f 117/111/115 96/112/94 94/109/92 95/108/93
f 96/112/94 98/113/96 97/110/95 94/109/92
f 97/110/95 99/114/97 100/104/98 88/103/86
f 98/113/96 101/115/99 99/114/97 97/110/95
f 99/114/97 71/82/69 73/85/71 100/104/98
f 101/115/99 69/81/67 71/82/69 99/114/97
f 105/116/103 102/117/100 101/115/99 98/113/96
f 102/117/100 104/83/102 69/81/67 101/115/99
f 107/118/105 103/119/101 102/117/100 105/116/103
f 103/119/101 113/120/111 104/83/102 102/117/100
f 106/121/104 105/116/103 98/113/96 96/112/94
f 108/122/106 107/118/105 105/116/103 106/121/104
f 110/123/108 109/124/107 107/118/105 108/122/106
f 109/124/107 111/125/109 103/119/101 107/118/105
f 5/3/5 8/10/8 109/124/107 110/123/108
f 8/10/8 11/14/11 111/125/109 109/124/107
f 111/125/109 112/126/110 113/120/111 103/119/101
f 11/14/11 14/18/14 112/126/110 111/125/109
f 112/126/110 62/75/60 64/76/62 113/120/111
f 14/18/14 17/22/17 62/75/60 112/126/110
f 113/120/111 64/76/62 66/78/64 104/83/102
f 114/127/112 110/123/108 108/122/106 115/128/113
f 2/4/2 5/3/5 110/123/108 114/127/112
f 115/128/113 108/122/106 106/121/104 116/129/114
f 116/129/114 106/121/104 96/112/94 117/111/115
f 100/104/98 73/85/71 75/87/73 89/95/87
f 118/106/116 86/99/84 84/98/82 119/130/117
f 119/130/117 84/98/82 6/6/6 3/5/3
f 78/54/76 36/46/35 34/45/33 120/92/118
f 77/90/75 120/92/118 21/27/21 18/23/18
f 120/92/118 34/45/33 24/31/24 21/27/21
