# Blender 4.4.3
# www.blender.org
o handrail.009
v 0.004748 0.194419 0.194419
v 0.000000 0.195319 0.195319
v 0.008224 0.191961 0.191961
v 0.004748 0.203111 0.185326
v 0.000000 0.204051 0.186185
v 0.008224 0.200545 0.182982
v 0.004748 0.211309 0.175939
v 0.000000 0.212286 0.176755
v 0.008224 0.208640 0.173712
v 0.004748 0.219012 0.166276
v 0.000000 0.220024 0.167046
v 0.008224 0.216246 0.164171
v 0.004748 0.226218 0.156353
v 0.000000 0.227264 0.157078
v 0.008224 0.223361 0.154374
v 0.004748 0.232928 0.146189
v 0.000000 0.234006 0.146866
v 0.008224 0.229986 0.144339
v 0.004748 0.239142 0.135801
v 0.000000 0.240248 0.136430
v 0.008224 0.236120 0.134083
v 0.004748 0.244858 0.125206
v 0.000000 0.245991 0.125786
v 0.008224 0.241764 0.123623
v 0.004748 0.250078 0.114423
v 0.000000 0.251235 0.114952
v 0.008224 0.246916 0.112977
v 0.004748 0.254800 0.103468
v 0.000000 0.255979 0.103946
v 0.008224 0.251579 0.102162
v 0.009497 0.247178 0.100378
v 0.008224 0.242778 0.098593
v 0.009497 0.242598 0.111003
v 0.008224 0.238280 0.109028
v 0.009497 0.237536 0.121461
v 0.008224 0.233309 0.119299
v 0.009497 0.231992 0.131736
v 0.008224 0.227864 0.129390
v 0.009497 0.225966 0.141812
v 0.009497 0.219458 0.151670
v 0.008224 0.221946 0.139284
v 0.008224 0.215554 0.148966
v 0.004748 0.219003 0.137434
v 0.000000 0.217926 0.136757
v 0.004748 0.224842 0.127672
v 0.004748 0.212697 0.146987
v 0.004748 0.205923 0.156314
v 0.000000 0.211651 0.146262
v 0.000000 0.204910 0.155544
v -0.004748 0.212697 0.146987
v -0.004748 0.205923 0.156314
v -0.008224 0.215554 0.148966
v -0.004748 0.219003 0.137434
v -0.008224 0.221946 0.139284
v -0.004748 0.224842 0.127672
v 0.000000 0.223736 0.127043
v -0.008224 0.227864 0.129390
v -0.004748 0.230214 0.117716
v -0.004748 0.235119 0.107583
v 0.000000 0.229081 0.117137
v -0.008224 0.233309 0.119299
v -0.008224 0.238280 0.109028
v -0.009497 0.237536 0.121461
v -0.009497 0.231992 0.131736
v -0.008224 0.241764 0.123623
v -0.009497 0.242598 0.111003
v -0.009497 0.247178 0.100378
v -0.008224 0.246916 0.112977
v -0.008224 0.251578 0.102162
v -0.004748 0.250078 0.114423
v -0.004748 0.254800 0.103468
v -0.004748 0.244858 0.125206
v -0.004748 0.239142 0.135801
v -0.004748 0.232928 0.146189
v -0.008224 0.236120 0.134083
v -0.008224 0.229986 0.144339
v -0.009497 0.225966 0.141812
v -0.008224 0.223361 0.154374
v -0.004748 0.226218 0.156353
v -0.008224 0.216246 0.164171
v -0.009497 0.219458 0.151670
v -0.009497 0.212467 0.161295
v -0.009497 0.204995 0.170670
v -0.008224 0.208689 0.158419
v -0.008224 0.201349 0.167628
v -0.008224 0.193535 0.176575
v -0.004748 0.198680 0.165401
v -0.004748 0.190969 0.174231
v 0.000000 0.197703 0.164586
v 0.000000 0.190030 0.173372
v 0.004748 0.198680 0.165401
v 0.004748 0.190969 0.174231
v 0.008224 0.201349 0.167628
v 0.009497 0.204995 0.170670
v 0.008224 0.208689 0.158419
v 0.008224 0.193535 0.176575
v 0.008224 0.185246 0.185246
v 0.009497 0.197040 0.179779
v 0.009497 0.188604 0.188604
v 0.004748 0.182788 0.182788
v 0.000000 0.181888 0.181888
v -0.004748 0.182788 0.182788
v -0.008224 0.185246 0.185246
v -0.009497 0.188604 0.188604
v -0.008224 0.191961 0.191961
v -0.009497 0.197040 0.179779
v -0.008224 0.200545 0.182982
v -0.004748 0.203111 0.185326
v -0.008224 0.208640 0.173712
v -0.004748 0.211309 0.175939
v -0.004748 0.219012 0.166276
v -0.004748 0.194419 0.194419
v 0.009497 0.212467 0.161295
v -0.008224 0.242778 0.098593
v -0.004748 0.239557 0.097287
v 0.000000 0.238377 0.096809
v 0.000000 0.233962 0.107054
v 0.004748 0.239557 0.097287
v 0.004748 0.235119 0.107583
v 0.004748 0.230214 0.117716
vn 0.4983 0.6267 0.5991
vn -0.0000 0.7228 0.6910
vn 0.8644 0.3635 0.3475
vn 0.4984 0.6400 0.5848
vn -0.0000 0.7382 0.6746
vn 0.8644 0.3711 0.3392
vn 0.4984 0.6656 0.5555
vn -0.0000 0.7678 0.6407
vn 0.8644 0.3860 0.3221
vn 0.4984 0.6899 0.5250
vn -0.0000 0.7958 0.6056
vn 0.8644 0.4001 0.3045
vn 0.4984 0.7127 0.4937
vn -0.0000 0.8220 0.5694
vn 0.8644 0.4133 0.2863
vn 0.4984 0.7339 0.4614
vn -0.0000 0.8466 0.5323
vn 0.8644 0.4256 0.2676
vn 0.4984 0.7537 0.4284
vn -0.0000 0.8693 0.4942
vn 0.8644 0.4370 0.2484
vn 0.4984 0.7718 0.3948
vn -0.0000 0.8903 0.4554
vn 0.8645 0.4476 0.2289
vn 0.4984 0.7884 0.3605
vn -0.0000 0.9094 0.4158
vn 0.8645 0.4572 0.2090
vn 0.4984 0.7962 0.3432
vn -0.0000 0.9183 0.3958
vn 0.8644 0.4617 0.1990
vn 1.0000 0.0033 0.0014
vn 0.8675 -0.4568 -0.1969
vn 1.0000 0.0033 0.0015
vn 0.8676 -0.4522 -0.2068
vn 1.0000 0.0032 0.0017
vn 0.8676 -0.4427 -0.2264
vn 1.0000 0.0032 0.0018
vn 0.8676 -0.4323 -0.2457
vn 1.0000 0.0031 0.0019
vn 1.0000 0.0030 0.0021
vn 0.8676 -0.4210 -0.2647
vn 0.8676 -0.4087 -0.2831
vn 0.5016 -0.7324 -0.4605
vn -0.0000 -0.8466 -0.5323
vn 0.5016 -0.7521 -0.4275
vn 0.5016 -0.7111 -0.4926
vn 0.5016 -0.6884 -0.5239
vn -0.0000 -0.8220 -0.5694
vn -0.0000 -0.7958 -0.6056
vn -0.5016 -0.7111 -0.4926
vn -0.5016 -0.6884 -0.5239
vn -0.8676 -0.4087 -0.2831
vn -0.5016 -0.7324 -0.4605
vn -0.8676 -0.4210 -0.2647
vn -0.5016 -0.7521 -0.4275
vn -0.0000 -0.8693 -0.4942
vn -0.8676 -0.4323 -0.2457
vn -0.5016 -0.7702 -0.3939
vn -0.5016 -0.7868 -0.3598
vn -0.0000 -0.8903 -0.4554
vn -0.8676 -0.4427 -0.2264
vn -0.8676 -0.4523 -0.2068
vn -1.0000 0.0032 0.0016
vn -1.0000 0.0032 0.0018
vn -0.8645 0.4476 0.2289
vn -1.0000 0.0033 0.0015
vn -1.0000 0.0033 0.0014
vn -0.8645 0.4572 0.2090
vn -0.8644 0.4617 0.1990
vn -0.4984 0.7884 0.3605
vn -0.4984 0.7962 0.3432
vn -0.4984 0.7718 0.3948
vn -0.4984 0.7537 0.4284
vn -0.4984 0.7339 0.4614
vn -0.8644 0.4370 0.2484
vn -0.8644 0.4256 0.2676
vn -1.0000 0.0031 0.0019
vn -0.8644 0.4133 0.2863
vn -0.4984 0.7127 0.4937
vn -0.8644 0.4001 0.3045
vn -1.0000 0.0030 0.0021
vn -1.0000 0.0029 0.0022
vn -1.0000 0.0028 0.0024
vn -0.8676 -0.3957 -0.3011
vn -0.8676 -0.3818 -0.3186
vn -0.8676 -0.3670 -0.3354
vn -0.5016 -0.6642 -0.5543
vn -0.5016 -0.6386 -0.5836
vn -0.0000 -0.7678 -0.6407
vn -0.0000 -0.7382 -0.6746
vn 0.5016 -0.6642 -0.5543
vn 0.5016 -0.6386 -0.5836
vn 0.8676 -0.3818 -0.3186
vn 1.0000 0.0028 0.0024
vn 0.8676 -0.3957 -0.3011
vn 0.8676 -0.3670 -0.3354
vn 0.8676 -0.3595 -0.3437
vn 1.0000 0.0027 0.0025
vn 1.0000 0.0027 0.0026
vn 0.5015 -0.6254 -0.5978
vn -0.0000 -0.7228 -0.6910
vn -0.5015 -0.6254 -0.5978
vn -0.8676 -0.3595 -0.3437
vn -1.0000 0.0027 0.0026
vn -0.8644 0.3635 0.3475
vn -1.0000 0.0027 0.0025
vn -0.8644 0.3711 0.3392
vn -0.4984 0.6400 0.5848
vn -0.8644 0.3860 0.3221
vn -0.4984 0.6656 0.5555
vn -0.4984 0.6899 0.5250
vn -0.4983 0.6267 0.5991
vn 1.0000 0.0029 0.0022
vn -0.8675 -0.4568 -0.1969
vn -0.5015 -0.7945 -0.3425
vn -0.0000 -0.9183 -0.3958
vn -0.0000 -0.9094 -0.4158
vn 0.5015 -0.7945 -0.3425
vn 0.5016 -0.7868 -0.3598
vn 0.5016 -0.7702 -0.3939
vt 0.250000 1.000000
vt 0.256944 1.000000
vt 0.256944 0.916667
vt 0.250000 0.916667
vt 0.250000 0.083333
vt 0.256944 0.083333
vt 0.256944 0.000000
vt 0.250000 0.000000
vt 0.263889 1.000000
vt 0.263889 0.916667
vt 0.263889 0.083333
vt 0.263889 0.000000
vt 0.270833 1.000000
vt 0.270833 0.916667
vt 0.270833 0.083333
vt 0.270833 0.000000
vt 0.277778 1.000000
vt 0.277778 0.916667
vt 0.277778 0.083333
vt 0.277778 0.000000
vt 0.284722 1.000000
vt 0.284722 0.916667
vt 0.284722 0.083333
vt 0.284722 0.000000
vt 0.291667 1.000000
vt 0.291667 0.916667
vt 0.291667 0.083333
vt 0.291667 0.000000
vt 0.298611 1.000000
vt 0.298611 0.916667
vt 0.298611 0.083333
vt 0.298611 0.000000
vt 0.305556 1.000000
vt 0.305556 0.916667
vt 0.305556 0.083333
vt 0.305556 0.000000
vt 0.312500 1.000000
vt 0.312500 0.916667
vt 0.312500 0.083333
vt 0.312500 0.000000
vt 0.305556 0.166667
vt 0.312500 0.166667
vt 0.305556 0.250000
vt 0.312500 0.250000
vt 0.298611 0.250000
vt 0.298611 0.166667
vt 0.291667 0.250000
vt 0.291667 0.166667
vt 0.284722 0.166667
vt 0.284722 0.250000
vt 0.277778 0.166667
vt 0.277778 0.250000
vt 0.277778 0.333333
vt 0.284722 0.333333
vt 0.291667 0.333333
vt 0.277778 0.416667
vt 0.284722 0.416667
vt 0.291667 0.416667
vt 0.270833 0.333333
vt 0.270833 0.250000
vt 0.270833 0.416667
vt 0.270833 0.500000
vt 0.277778 0.500000
vt 0.284722 0.500000
vt 0.270833 0.583333
vt 0.277778 0.583333
vt 0.284722 0.583333
vt 0.291667 0.500000
vt 0.291667 0.583333
vt 0.298611 0.500000
vt 0.298611 0.416667
vt 0.298611 0.583333
vt 0.305556 0.500000
vt 0.305556 0.416667
vt 0.305556 0.583333
vt 0.298611 0.666667
vt 0.305556 0.666667
vt 0.291667 0.666667
vt 0.291667 0.750000
vt 0.298611 0.750000
vt 0.305556 0.750000
vt 0.312500 0.666667
vt 0.312500 0.583333
vt 0.312500 0.750000
vt 0.305556 0.833333
vt 0.312500 0.833333
vt 0.298611 0.833333
vt 0.291667 0.833333
vt 0.284722 0.833333
vt 0.284722 0.750000
vt 0.284722 0.666667
vt 0.277778 0.750000
vt 0.277778 0.666667
vt 0.277778 0.833333
vt 0.270833 0.833333
vt 0.270833 0.750000
vt 0.270833 0.666667
vt 0.263889 0.750000
vt 0.263889 0.666667
vt 0.263889 0.583333
vt 0.263889 0.500000
vt 0.256944 0.583333
vt 0.256944 0.500000
vt 0.256944 0.666667
vt 0.263889 0.416667
vt 0.256944 0.416667
vt 0.263889 0.333333
vt 0.256944 0.333333
vt 0.263889 0.250000
vt 0.256944 0.250000
vt 0.263889 0.166667
vt 0.256944 0.166667
vt 0.270833 0.166667
vt 0.250000 0.250000
vt 0.250000 0.166667
vt 0.250000 0.333333
vt 0.250000 0.416667
vt 0.250000 0.500000
vt 0.250000 0.583333
vt 0.250000 0.666667
vt 0.250000 0.750000
vt 0.256944 0.750000
vt 0.250000 0.833333
vt 0.256944 0.833333
vt 0.263889 0.833333
vt 0.312500 0.500000
vt 0.312500 0.416667
vt 0.312500 0.333333
vt 0.305556 0.333333
vt 0.298611 0.333333
s 1
f 1/1/1 4/2/4 5/3/5 2/4/2
f 3/5/3 6/6/6 4/7/4 1/8/1
f 4/2/4 7/9/7 8/10/8 5/3/5
f 6/6/6 9/11/9 7/12/7 4/7/4
f 7/9/7 10/13/10 11/14/11 8/10/8
f 9/11/9 12/15/12 10/16/10 7/12/7
f 10/13/10 13/17/13 14/18/14 11/14/11
f 12/15/12 15/19/15 13/20/13 10/16/10
f 13/17/13 16/21/16 17/22/17 14/18/14
f 15/19/15 18/23/18 16/24/16 13/20/13
f 16/21/16 19/25/19 20/26/20 17/22/17
f 18/23/18 21/27/21 19/28/19 16/24/16
f 19/25/19 22/29/22 23/30/23 20/26/20
f 21/27/21 24/31/24 22/32/22 19/28/19
f 22/29/22 25/33/25 26/34/26 23/30/23
f 24/31/24 27/35/27 25/36/25 22/32/22
f 25/33/25 28/37/28 29/38/29 26/34/26
f 27/35/27 30/39/30 28/40/28 25/36/25
f 33/41/33 31/42/31 30/39/30 27/35/27
f 34/43/34 32/44/32 31/42/31 33/41/33
f 36/45/36 34/43/34 33/41/33 35/46/35
f 35/46/35 33/41/33 27/35/27 24/31/24
f 38/47/38 36/45/36 35/46/35 37/48/37
f 37/48/37 35/46/35 24/31/24 21/27/21
f 39/49/39 37/48/37 21/27/21 18/23/18
f 41/50/41 38/47/38 37/48/37 39/49/39
f 40/51/40 39/49/39 18/23/18 15/19/15
f 42/52/42 41/50/41 39/49/39 40/51/40
f 46/53/46 43/54/43 41/50/41 42/52/42
f 43/54/43 45/55/45 38/47/38 41/50/41
f 48/56/48 44/57/44 43/54/43 46/53/46
f 44/57/44 56/58/56 45/55/45 43/54/43
f 47/59/47 46/53/46 42/52/42 95/60/95
f 49/61/49 48/56/48 46/53/46 47/59/47
f 51/62/51 50/63/50 48/56/48 49/61/49
f 50/63/50 53/64/53 44/57/44 48/56/48
f 84/65/84 52/66/52 50/63/50 51/62/51
f 52/66/52 54/67/54 53/64/53 50/63/50
f 53/64/53 55/68/55 56/58/56 44/57/44
f 54/67/54 57/69/57 55/68/55 53/64/53
f 55/68/55 58/70/58 60/71/60 56/58/56
f 57/69/57 61/72/61 58/70/58 55/68/55
f 58/70/58 59/73/59 117/74/117 60/71/60
f 61/72/61 62/75/62 59/73/59 58/70/58
f 63/76/63 66/77/66 62/75/62 61/72/61
f 64/78/64 63/76/63 61/72/61 57/69/57
f 75/79/75 65/80/65 63/76/63 64/78/64
f 65/80/65 68/81/68 66/77/66 63/76/63
f 66/77/66 67/82/67 114/83/114 62/75/62
f 68/81/68 69/84/69 67/82/67 66/77/66
f 70/85/70 71/86/71 69/84/69 68/81/68
f 72/87/72 70/85/70 68/81/68 65/80/65
f 26/34/26 29/38/29 71/86/71 70/85/70
f 23/30/23 26/34/26 70/85/70 72/87/72
f 20/26/20 23/30/23 72/87/72 73/88/73
f 73/88/73 72/87/72 65/80/65 75/79/75
f 17/22/17 20/26/20 73/88/73 74/89/74
f 74/89/74 73/88/73 75/79/75 76/90/76
f 76/90/76 75/79/75 64/78/64 77/91/77
f 78/92/78 76/90/76 77/91/77 81/93/81
f 79/94/79 74/89/74 76/90/76 78/92/78
f 111/95/111 79/94/79 78/92/78 80/96/80
f 80/96/80 78/92/78 81/93/81 82/97/82
f 81/93/81 77/91/77 54/67/54 52/66/52
f 82/97/82 81/93/81 52/66/52 84/65/84
f 109/98/109 80/96/80 82/97/82 83/99/83
f 83/99/83 82/97/82 84/65/84 85/100/85
f 85/100/85 84/65/84 51/62/51 87/101/87
f 86/102/86 85/100/85 87/101/87 88/103/88
f 106/104/106 83/99/83 85/100/85 86/102/86
f 88/103/88 87/101/87 89/105/89 90/106/90
f 87/101/87 51/62/51 49/61/49 89/105/89
f 90/106/90 89/105/89 91/107/91 92/108/92
f 89/105/89 49/61/49 47/59/47 91/107/91
f 92/108/92 91/107/91 93/109/93 96/110/96
f 91/107/91 47/59/47 95/60/95 93/109/93
f 96/110/96 93/109/93 94/111/94 98/112/98
f 93/109/93 95/60/95 113/113/113 94/111/94
f 97/114/97 96/110/96 98/112/98 99/115/99
f 100/116/100 92/108/92 96/110/96 97/114/97
f 99/115/99 98/112/98 6/6/6 3/5/3
f 98/112/98 94/111/94 9/11/9 6/6/6
f 101/117/101 90/106/90 92/108/92 100/116/100
f 102/118/102 88/103/88 90/106/90 101/117/101
f 103/119/103 86/102/86 88/103/88 102/118/102
f 104/120/104 106/104/106 86/102/86 103/119/103
f 105/121/105 107/122/107 106/104/106 104/120/104
f 107/122/107 109/98/109 83/99/83 106/104/106
f 112/123/112 108/124/108 107/122/107 105/121/105
f 108/124/108 110/125/110 109/98/109 107/122/107
f 110/125/110 111/95/111 80/96/80 109/98/109
f 8/10/8 11/14/11 111/95/111 110/125/110
f 5/3/5 8/10/8 110/125/110 108/124/108
f 11/14/11 14/18/14 79/94/79 111/95/111
f 2/4/2 5/3/5 108/124/108 112/123/112
f 95/60/95 42/52/42 40/51/40 113/113/113
f 94/111/94 113/113/113 12/15/12 9/11/9
f 113/113/113 40/51/40 15/19/15 12/15/12
f 14/18/14 17/22/17 74/89/74 79/94/79
f 77/91/77 64/78/64 57/69/57 54/67/54
f 62/75/62 114/83/114 115/126/115 59/73/59
f 59/73/59 115/126/115 116/127/116 117/74/117
f 117/74/117 116/127/116 118/128/118 119/129/119
f 119/129/119 118/128/118 32/44/32 34/43/34
f 60/71/60 117/74/117 119/129/119 120/130/120
f 120/130/120 119/129/119 34/43/34 36/45/36
f 45/55/45 120/130/120 36/45/36 38/47/38
f 56/58/56 60/71/60 120/130/120 45/55/45
