# Blender 4.4.3
# www.blender.org
o handrail.016
v 0.004748 0.274950 -0.000000
v 0.000000 0.276222 -0.000000
v 0.008224 0.271474 0.000000
v 0.004748 0.274667 -0.012576
v 0.000000 0.275938 -0.012633
v 0.008224 0.271194 -0.012419
v 0.004748 0.273826 -0.025010
v 0.000000 0.275093 -0.025125
v 0.008224 0.270364 -0.024698
v 0.004748 0.272439 -0.037290
v 0.000000 0.273700 -0.037461
v 0.008224 0.268995 -0.036823
v 0.004748 0.270519 -0.049402
v 0.000000 0.271771 -0.049629
v 0.008224 0.267099 -0.048781
v 0.004748 0.268076 -0.061334
v 0.000000 0.269317 -0.061617
v 0.008224 0.264687 -0.060561
v 0.004748 0.265125 -0.073073
v 0.000000 0.266351 -0.073411
v 0.008224 0.261773 -0.072151
v 0.004748 0.261675 -0.084607
v 0.000000 0.262886 -0.084998
v 0.008224 0.258368 -0.083538
v 0.004748 0.257741 -0.095922
v 0.000000 0.258933 -0.096367
v 0.008224 0.254483 -0.094709
v 0.004748 0.253333 -0.107008
v 0.000000 0.254505 -0.107504
v 0.008224 0.250132 -0.105654
v 0.009497 0.245759 -0.103804
v 0.008224 0.241386 -0.101954
v 0.009497 0.250034 -0.093052
v 0.008224 0.245584 -0.091395
v 0.009497 0.253850 -0.082077
v 0.008224 0.249331 -0.080617
v 0.009497 0.257195 -0.070891
v 0.008224 0.252617 -0.069632
v 0.009497 0.260058 -0.059506
v 0.009497 0.262427 -0.047933
v 0.008224 0.255428 -0.058451
v 0.008224 0.257755 -0.047085
v 0.004748 0.252039 -0.057678
v 0.000000 0.250799 -0.057395
v 0.004748 0.249265 -0.068710
v 0.004748 0.254335 -0.046464
v 0.004748 0.256140 -0.035078
v 0.000000 0.253083 -0.046237
v 0.000000 0.254880 -0.034907
v -0.004748 0.254335 -0.046464
v -0.004748 0.256140 -0.035078
v -0.008224 0.257755 -0.047085
v -0.004748 0.252039 -0.057678
v -0.008224 0.255428 -0.058451
v -0.004748 0.249265 -0.068710
v 0.000000 0.248039 -0.068372
v -0.008224 0.252617 -0.069632
v -0.004748 0.246024 -0.079548
v -0.004748 0.242327 -0.090182
v 0.000000 0.244813 -0.079157
v -0.008224 0.249331 -0.080617
v -0.008224 0.245584 -0.091395
v -0.009497 0.253850 -0.082077
v -0.009497 0.257195 -0.070891
v -0.008224 0.258368 -0.083538
v -0.009497 0.250034 -0.093052
v -0.009497 0.245759 -0.103804
v -0.008224 0.254483 -0.094709
v -0.008224 0.250132 -0.105654
v -0.004748 0.257741 -0.095922
v -0.004748 0.253333 -0.107008
v -0.004748 0.261675 -0.084607
v -0.004748 0.265125 -0.073073
v -0.004748 0.268076 -0.061334
v -0.008224 0.261773 -0.072151
v -0.008224 0.264687 -0.060561
v -0.009497 0.260058 -0.059506
v -0.008224 0.267099 -0.048781
v -0.004748 0.270519 -0.049402
v -0.008224 0.268995 -0.036823
v -0.009497 0.262427 -0.047933
v -0.009497 0.264290 -0.036184
v -0.009497 0.265635 -0.024271
v -0.008224 0.259585 -0.035546
v -0.008224 0.260906 -0.023844
v -0.008224 0.261708 -0.011992
v -0.004748 0.257444 -0.023532
v -0.004748 0.258235 -0.011836
v 0.000000 0.256177 -0.023418
v 0.000000 0.256964 -0.011779
v 0.004748 0.257444 -0.023532
v 0.004748 0.258235 -0.011836
v 0.008224 0.260906 -0.023844
v 0.009497 0.265635 -0.024271
v 0.008224 0.259585 -0.035546
v 0.008224 0.261708 -0.011992
v 0.008224 0.261977 0.000000
v 0.009497 0.266451 -0.012206
v 0.009497 0.266726 0.000000
v 0.004748 0.258501 0.000000
v 0.000000 0.257229 0.000000
v -0.004748 0.258501 0.000000
v -0.008224 0.261977 0.000000
v -0.009497 0.266726 0.000000
v -0.008224 0.271474 0.000000
v -0.009497 0.266451 -0.012206
v -0.008224 0.271194 -0.012419
v -0.004748 0.274667 -0.012576
v -0.008224 0.270364 -0.024698
v -0.004748 0.273826 -0.025010
v -0.004748 0.272439 -0.037290
v -0.004748 0.274950 -0.000000
v 0.009497 0.264290 -0.036184
v -0.008224 0.241386 -0.101954
v -0.004748 0.238185 -0.100599
v 0.000000 0.237013 -0.100104
v 0.000000 0.241134 -0.089738
v 0.004748 0.238185 -0.100599
v 0.004748 0.242327 -0.090182
v 0.004748 0.246024 -0.079548
vn 0.4983 0.8668 -0.0195
vn -0.0000 0.9997 -0.0225
vn 0.8644 0.5027 -0.0113
vn 0.4984 0.8661 -0.0390
vn -0.0000 0.9990 -0.0450
vn 0.8644 0.5023 -0.0226
vn 0.4984 0.8634 -0.0779
vn -0.0000 0.9960 -0.0899
vn 0.8644 0.5007 -0.0452
vn 0.4984 0.8591 -0.1166
vn -0.0000 0.9909 -0.1344
vn 0.8644 0.4982 -0.0676
vn 0.4984 0.8530 -0.1548
vn -0.0000 0.9839 -0.1786
vn 0.8644 0.4947 -0.0898
vn 0.4984 0.8453 -0.1927
vn -0.0000 0.9750 -0.2223
vn 0.8644 0.4902 -0.1117
vn 0.4984 0.8359 -0.2300
vn -0.0000 0.9642 -0.2653
vn 0.8644 0.4847 -0.1334
vn 0.4984 0.8249 -0.2666
vn -0.0000 0.9515 -0.3075
vn 0.8645 0.4783 -0.1546
vn 0.4984 0.8124 -0.3026
vn -0.0000 0.9371 -0.3490
vn 0.8645 0.4711 -0.1754
vn 0.4984 0.8056 -0.3203
vn -0.0000 0.9292 -0.3695
vn 0.8644 0.4672 -0.1857
vn 1.0000 0.0033 -0.0013
vn 0.8675 -0.4622 0.1838
vn 1.0000 0.0034 -0.0013
vn 0.8676 -0.4660 0.1736
vn 1.0000 0.0034 -0.0011
vn 0.8676 -0.4732 0.1529
vn 1.0000 0.0035 -0.0010
vn 0.8676 -0.4794 0.1319
vn 1.0000 0.0036 -0.0008
vn 1.0000 0.0036 -0.0007
vn 0.8676 -0.4848 0.1105
vn 0.8676 -0.4892 0.0888
vn 0.5016 -0.8435 0.1923
vn -0.0000 -0.9750 0.2223
vn 0.5016 -0.8341 0.2295
vn 0.5016 -0.8512 0.1545
vn 0.5016 -0.8572 0.1163
vn -0.0000 -0.9839 0.1786
vn -0.0000 -0.9909 0.1344
vn -0.5016 -0.8512 0.1545
vn -0.5016 -0.8572 0.1163
vn -0.8676 -0.4892 0.0888
vn -0.5016 -0.8435 0.1923
vn -0.8676 -0.4848 0.1105
vn -0.5016 -0.8341 0.2295
vn -0.0000 -0.9642 0.2653
vn -0.8676 -0.4794 0.1319
vn -0.5016 -0.8232 0.2661
vn -0.5016 -0.8107 0.3019
vn -0.0000 -0.9515 0.3075
vn -0.8676 -0.4732 0.1529
vn -0.8676 -0.4660 0.1736
vn -1.0000 0.0034 -0.0011
vn -1.0000 0.0035 -0.0010
vn -0.8645 0.4783 -0.1546
vn -1.0000 0.0034 -0.0013
vn -1.0000 0.0033 -0.0013
vn -0.8645 0.4711 -0.1754
vn -0.8644 0.4672 -0.1857
vn -0.4984 0.8124 -0.3026
vn -0.4984 0.8056 -0.3203
vn -0.4984 0.8249 -0.2666
vn -0.4984 0.8359 -0.2300
vn -0.4984 0.8453 -0.1927
vn -0.8644 0.4847 -0.1334
vn -0.8644 0.4902 -0.1117
vn -1.0000 0.0036 -0.0008
vn -0.8644 0.4947 -0.0898
vn -0.4984 0.8530 -0.1548
vn -0.8644 0.4982 -0.0676
vn -1.0000 0.0036 -0.0007
vn -1.0000 0.0037 -0.0005
vn -1.0000 0.0037 -0.0003
vn -0.8676 -0.4927 0.0669
vn -0.8676 -0.4952 0.0447
vn -0.8676 -0.4967 0.0224
vn -0.5016 -0.8616 0.0777
vn -0.5016 -0.8642 0.0389
vn -0.0000 -0.9960 0.0899
vn -0.0000 -0.9990 0.0450
vn 0.5016 -0.8616 0.0777
vn 0.5016 -0.8642 0.0389
vn 0.8676 -0.4952 0.0447
vn 1.0000 0.0037 -0.0003
vn 0.8676 -0.4927 0.0669
vn 0.8676 -0.4967 0.0224
vn 0.8676 -0.4972 0.0112
vn 1.0000 0.0037 -0.0002
vn 1.0000 0.0037 -0.0001
vn 0.5015 -0.8649 0.0195
vn -0.0000 -0.9997 0.0225
vn -0.5015 -0.8649 0.0195
vn -0.8676 -0.4972 0.0112
vn -1.0000 0.0037 -0.0001
vn -0.8644 0.5027 -0.0113
vn -1.0000 0.0037 -0.0002
vn -0.8644 0.5023 -0.0226
vn -0.4984 0.8661 -0.0390
vn -0.8644 0.5007 -0.0452
vn -0.4984 0.8634 -0.0779
vn -0.4984 0.8591 -0.1166
vn -0.4983 0.8668 -0.0195
vn 1.0000 0.0037 -0.0005
vn -0.8675 -0.4622 0.1838
vn -0.5015 -0.8040 0.3196
vn -0.0000 -0.9292 0.3695
vn -0.0000 -0.9371 0.3490
vn 0.5015 -0.8040 0.3196
vn 0.5016 -0.8107 0.3019
vn 0.5016 -0.8232 0.2661
vt 0.250000 1.000000
vt 0.256944 1.000000
vt 0.256944 0.916667
vt 0.250000 0.916667
vt 0.250000 0.083333
vt 0.256944 0.083333
vt 0.256944 0.000000
vt 0.250000 0.000000
vt 0.263889 1.000000
vt 0.263889 0.916667
vt 0.263889 0.083333
vt 0.263889 0.000000
vt 0.270833 1.000000
vt 0.270833 0.916667
vt 0.270833 0.083333
vt 0.270833 0.000000
vt 0.277778 1.000000
vt 0.277778 0.916667
vt 0.277778 0.083333
vt 0.277778 0.000000
vt 0.284722 1.000000
vt 0.284722 0.916667
vt 0.284722 0.083333
vt 0.284722 0.000000
vt 0.291667 1.000000
vt 0.291667 0.916667
vt 0.291667 0.083333
vt 0.291667 0.000000
vt 0.298611 1.000000
vt 0.298611 0.916667
vt 0.298611 0.083333
vt 0.298611 0.000000
vt 0.305556 1.000000
vt 0.305556 0.916667
vt 0.305556 0.083333
vt 0.305556 0.000000
vt 0.312500 1.000000
vt 0.312500 0.916667
vt 0.312500 0.083333
vt 0.312500 0.000000
vt 0.305556 0.166667
vt 0.312500 0.166667
vt 0.305556 0.250000
vt 0.312500 0.250000
vt 0.298611 0.250000
vt 0.298611 0.166667
vt 0.291667 0.250000
vt 0.291667 0.166667
vt 0.284722 0.166667
vt 0.284722 0.250000
vt 0.277778 0.166667
vt 0.277778 0.250000
vt 0.277778 0.333333
vt 0.284722 0.333333
vt 0.291667 0.333333
vt 0.277778 0.416667
vt 0.284722 0.416667
vt 0.291667 0.416667
vt 0.270833 0.333333
vt 0.270833 0.250000
vt 0.270833 0.416667
vt 0.270833 0.500000
vt 0.277778 0.500000
vt 0.284722 0.500000
vt 0.270833 0.583333
vt 0.277778 0.583333
vt 0.284722 0.583333
vt 0.291667 0.500000
vt 0.291667 0.583333
vt 0.298611 0.500000
vt 0.298611 0.416667
vt 0.298611 0.583333
vt 0.305556 0.500000
vt 0.305556 0.416667
vt 0.305556 0.583333
vt 0.298611 0.666667
vt 0.305556 0.666667
vt 0.291667 0.666667
vt 0.291667 0.750000
vt 0.298611 0.750000
vt 0.305556 0.750000
vt 0.312500 0.666667
vt 0.312500 0.583333
vt 0.312500 0.750000
vt 0.305556 0.833333
vt 0.312500 0.833333
vt 0.298611 0.833333
vt 0.291667 0.833333
vt 0.284722 0.833333
vt 0.284722 0.750000
vt 0.284722 0.666667
vt 0.277778 0.750000
vt 0.277778 0.666667
vt 0.277778 0.833333
vt 0.270833 0.833333
vt 0.270833 0.750000
vt 0.270833 0.666667
vt 0.263889 0.750000
vt 0.263889 0.666667
vt 0.263889 0.583333
vt 0.263889 0.500000
vt 0.256944 0.583333
vt 0.256944 0.500000
vt 0.256944 0.666667
vt 0.263889 0.416667
vt 0.256944 0.416667
vt 0.263889 0.333333
vt 0.256944 0.333333
vt 0.263889 0.250000
vt 0.256944 0.250000
vt 0.263889 0.166667
vt 0.256944 0.166667
vt 0.270833 0.166667
vt 0.250000 0.250000
vt 0.250000 0.166667
vt 0.250000 0.333333
vt 0.250000 0.416667
vt 0.250000 0.500000
vt 0.250000 0.583333
vt 0.250000 0.666667
vt 0.250000 0.750000
vt 0.256944 0.750000
vt 0.250000 0.833333
vt 0.256944 0.833333
vt 0.263889 0.833333
vt 0.312500 0.500000
vt 0.312500 0.416667
vt 0.312500 0.333333
vt 0.305556 0.333333
vt 0.298611 0.333333
s 1
f 1/1/1 4/2/4 5/3/5 2/4/2
f 3/5/3 6/6/6 4/7/4 1/8/1
f 4/2/4 7/9/7 8/10/8 5/3/5
f 6/6/6 9/11/9 7/12/7 4/7/4
f 7/9/7 10/13/10 11/14/11 8/10/8
f 9/11/9 12/15/12 10/16/10 7/12/7
f 10/13/10 13/17/13 14/18/14 11/14/11
f 12/15/12 15/19/15 13/20/13 10/16/10
f 13/17/13 16/21/16 17/22/17 14/18/14
f 15/19/15 18/23/18 16/24/16 13/20/13
f 16/21/16 19/25/19 20/26/20 17/22/17
f 18/23/18 21/27/21 19/28/19 16/24/16
f 19/25/19 22/29/22 23/30/23 20/26/20
f 21/27/21 24/31/24 22/32/22 19/28/19
f 22/29/22 25/33/25 26/34/26 23/30/23
f 24/31/24 27/35/27 25/36/25 22/32/22
f 25/33/25 28/37/28 29/38/29 26/34/26
f 27/35/27 30/39/30 28/40/28 25/36/25
f 33/41/33 31/42/31 30/39/30 27/35/27
f 34/43/34 32/44/32 31/42/31 33/41/33
f 36/45/36 34/43/34 33/41/33 35/46/35
f 35/46/35 33/41/33 27/35/27 24/31/24
f 38/47/38 36/45/36 35/46/35 37/48/37
f 37/48/37 35/46/35 24/31/24 21/27/21
f 39/49/39 37/48/37 21/27/21 18/23/18
f 41/50/41 38/47/38 37/48/37 39/49/39
f 40/51/40 39/49/39 18/23/18 15/19/15
f 42/52/42 41/50/41 39/49/39 40/51/40
f 46/53/46 43/54/43 41/50/41 42/52/42
f 43/54/43 45/55/45 38/47/38 41/50/41
f 48/56/48 44/57/44 43/54/43 46/53/46
f 44/57/44 56/58/56 45/55/45 43/54/43
f 47/59/47 46/53/46 42/52/42 95/60/95
f 49/61/49 48/56/48 46/53/46 47/59/47
f 51/62/51 50/63/50 48/56/48 49/61/49
f 50/63/50 53/64/53 44/57/44 48/56/48
f 84/65/84 52/66/52 50/63/50 51/62/51
f 52/66/52 54/67/54 53/64/53 50/63/50
f 53/64/53 55/68/55 56/58/56 44/57/44
f 54/67/54 57/69/57 55/68/55 53/64/53
f 55/68/55 58/70/58 60/71/60 56/58/56
f 57/69/57 61/72/61 58/70/58 55/68/55
f 58/70/58 59/73/59 117/74/117 60/71/60
f 61/72/61 62/75/62 59/73/59 58/70/58
f 63/76/63 66/77/66 62/75/62 61/72/61
f 64/78/64 63/76/63 61/72/61 57/69/57
f 75/79/75 65/80/65 63/76/63 64/78/64
f 65/80/65 68/81/68 66/77/66 63/76/63
f 66/77/66 67/82/67 114/83/114 62/75/62
f 68/81/68 69/84/69 67/82/67 66/77/66
f 70/85/70 71/86/71 69/84/69 68/81/68
f 72/87/72 70/85/70 68/81/68 65/80/65
f 26/34/26 29/38/29 71/86/71 70/85/70
f 23/30/23 26/34/26 70/85/70 72/87/72
f 20/26/20 23/30/23 72/87/72 73/88/73
f 73/88/73 72/87/72 65/80/65 75/79/75
f 17/22/17 20/26/20 73/88/73 74/89/74
f 74/89/74 73/88/73 75/79/75 76/90/76
f 76/90/76 75/79/75 64/78/64 77/91/77
f 78/92/78 76/90/76 77/91/77 81/93/81
f 79/94/79 74/89/74 76/90/76 78/92/78
f 111/95/111 79/94/79 78/92/78 80/96/80
f 80/96/80 78/92/78 81/93/81 82/97/82
f 81/93/81 77/91/77 54/67/54 52/66/52
f 82/97/82 81/93/81 52/66/52 84/65/84
f 109/98/109 80/96/80 82/97/82 83/99/83
f 83/99/83 82/97/82 84/65/84 85/100/85
f 85/100/85 84/65/84 51/62/51 87/101/87
f 86/102/86 85/100/85 87/101/87 88/103/88
f 106/104/106 83/99/83 85/100/85 86/102/86
f 88/103/88 87/101/87 89/105/89 90/106/90
f 87/101/87 51/62/51 49/61/49 89/105/89
f 90/106/90 89/105/89 91/107/91 92/108/92
f 89/105/89 49/61/49 47/59/47 91/107/91
f 92/108/92 91/107/91 93/109/93 96/110/96
f 91/107/91 47/59/47 95/60/95 93/109/93
f 96/110/96 93/109/93 94/111/94 98/112/98
f 93/109/93 95/60/95 113/113/113 94/111/94
f 97/114/97 96/110/96 98/112/98 99/115/99
f 100/116/100 92/108/92 96/110/96 97/114/97
f 99/115/99 98/112/98 6/6/6 3/5/3
f 98/112/98 94/111/94 9/11/9 6/6/6
f 101/117/101 90/106/90 92/108/92 100/116/100
f 102/118/102 88/103/88 90/106/90 101/117/101
f 103/119/103 86/102/86 88/103/88 102/118/102
f 104/120/104 106/104/106 86/102/86 103/119/103
f 105/121/105 107/122/107 106/104/106 104/120/104
f 107/122/107 109/98/109 83/99/83 106/104/106
f 112/123/112 108/124/108 107/122/107 105/121/105
f 108/124/108 110/125/110 109/98/109 107/122/107
f 110/125/110 111/95/111 80/96/80 109/98/109
f 8/10/8 11/14/11 111/95/111 110/125/110
f 5/3/5 8/10/8 110/125/110 108/124/108
f 11/14/11 14/18/14 79/94/79 111/95/111
f 2/4/2 5/3/5 108/124/108 112/123/112
f 95/60/95 42/52/42 40/51/40 113/113/113
f 94/111/94 113/113/113 12/15/12 9/11/9
f 113/113/113 40/51/40 15/19/15 12/15/12
f 14/18/14 17/22/17 74/89/74 79/94/79
f 77/91/77 64/78/64 57/69/57 54/67/54
f 62/75/62 114/83/114 115/126/115 59/73/59
f 59/73/59 115/126/115 116/127/116 117/74/117
f 117/74/117 116/127/116 118/128/118 119/129/119
f 119/129/119 118/128/118 32/44/32 34/43/34
f 60/71/60 117/74/117 119/129/119 120/130/120
f 120/130/120 119/129/119 34/43/34 36/45/36
f 45/55/45 120/130/120 36/45/36 38/47/38
f 56/58/56 60/71/60 120/130/120 45/55/45
